<?xml version="1.0" encoding="UTF-8" standalone="no"?>
<svg
   width="720"
   height="358"
   version="1.1"
   id="svg27"
   sodipodi:docname="GPLv3.svg"
   inkscape:version="1.2 (dc2aedaf03, 2022-05-15)"
   xmlns:inkscape="http://www.inkscape.org/namespaces/inkscape"
   xmlns:sodipodi="http://sodipodi.sourceforge.net/DTD/sodipodi-0.dtd"
   xmlns="http://www.w3.org/2000/svg"
   xmlns:svg="http://www.w3.org/2000/svg">
  <sodipodi:namedview
     id="namedview6"
     pagecolor="#ffffff"
     bordercolor="#666666"
     borderopacity="1.0"
     inkscape:showpageshadow="2"
     inkscape:pageopacity="0.0"
     inkscape:pagecheckerboard="0"
     inkscape:deskcolor="#d1d1d1"
     showgrid="false"
     inkscape:zoom="2.5612979"
     inkscape:cx="403.70158"
     inkscape:cy="141.72502"
     inkscape:window-width="2560"
     inkscape:window-height="1416"
     inkscape:window-x="1920"
     inkscape:window-y="480"
     inkscape:window-maximized="1"
     inkscape:current-layer="svg27" />
  <defs
     id="defs31" />
  <path
     id="path1"
     style="fill:#bd0000"
     d="m 673.17578,0.34960938 -0.15234,0.0117187 C 660.58468,1.2583707 644.01653,4.9766923 628.3125,11.283203 H 539.91602 114.62305 80.892578 c 2e-5,0 -59.310547,258.767577 -59.310547,258.767577 h 0.05469 274.380859 111.35351 c 8.18871,4.77878 18.13817,7.56878 29.25,8.53711 l 0.18555,0.0156 h 19.41602 l 0.16601,-0.0137 c 6.2076,-0.48413 12.68443,-1.38394 19.37891,-2.69336 11.54209,-2.25681 23.71841,-5.71068 36.33398,-10.31054 9.54953,-3.48202 19.35432,-7.59813 29.29883,-12.37891 l 0.004,-0.002 c 21.6417,-10.37462 43.95204,-23.73256 65.83398,-39.8418 7.21048,-5.30371 14.12756,-10.74325 20.76563,-16.27344 l 0.002,-0.002 c 6.08772,-5.06541 11.93093,-10.21081 17.51367,-15.41601 l 0.0254,-0.0234 0.0254,-0.0254 c 15.68304,-15.1138 27.59687,-30.48012 34.50391,-44.36524 3.59772,-7.23101 5.85407,-14.07198 6.41797,-20.42187 0.56381,-6.34892 -0.65812,-12.35856 -4.22461,-17.072268 l -0.002,-0.002 c -2.61575,-3.460717 -6.28889,-5.750857 -10.5039,-7.259766 13.72831,-11.273226 24.90342,-23.311808 32.23242,-35.091797 8.55925,-13.757381 12.37711,-27.391992 8.19922,-38.86914 v -0.002 C 709.52062,11.166563 703.46964,5.6256188 695.51367,2.7558594 h -0.002 l -0.002,-0.00195 c -3.53373,-1.271171 -7.39945,-2.03996693 -11.52529,-2.38867502 l -0.17774,-0.015625 z m 10.20313,8.52734372 c 3.48278,0.044736 6.58007,0.9413833 9.24609,1.9003909 6.05839,2.18638 9.78367,5.787073 11.55273,10.667968 l 0.002,0.0039 v 0.0039 c 2.81302,7.722212 0.38015,18.909702 -7.42383,31.453125 -7.80398,12.543423 -20.705,26.141255 -37.08984,38.435547 l -9.04493,6.787109 11.27539,0.873047 c 6.66947,0.516719 11.06122,2.58176 13.57032,5.90235 l 0.002,0.002 c 2.05657,2.71732 2.96244,6.32027 2.53125,11.17578 -0.43119,4.85551 -2.29375,10.81107 -5.56055,17.37695 -6.26998,12.60447 -17.62286,27.40542 -32.75781,41.9961 -5.45672,5.08693 -11.17106,10.12117 -17.13086,15.08008 l -0.002,0.002 c -6.5136,5.42656 -13.29542,10.76161 -20.36133,15.95898 h -0.002 c -21.46702,15.8039 -43.34029,28.89228 -64.47071,39.02149 l -0.004,0.002 h -0.002 c -9.69602,4.66148 -19.24385,8.66967 -28.52734,12.05469 -12.24684,4.46542 -24.00901,7.79609 -35.05078,9.95508 -6.36192,1.24437 -12.47953,2.09069 -18.29688,2.54882 h -18.57031 c -0.0873,-0.008 -0.1707,-0.0194 -0.25781,-0.0273 h 1.7168 c -17.00107,-1.48353 -30.42439,-7.45273 -38.42188,-18.33203 -1.48353,-2.01219 -2.70891,-4.17932 -3.7832,-6.44727 -0.68207,-1.6711 -1.32272,-3.35728 -1.9707,-5.0625 -1.70525,-5.42261 -2.38506,-11.43993 -2.07813,-17.85156 0.85262,-17.87074 9.23714,-39.12871 23.76563,-61.38867 15.43225,-23.65656 37.79939,-48.45043 65.49218,-71.458987 6.20699,-5.15319 12.62517,-10.24235 19.34375,-15.1875 8.30441,-6.10979 16.67228,-11.735727 25.04492,-16.998047 30.84745,-19.42077 61.61827,-33.00941 88.88477,-39.91211 -26.05577,8.50051 -55.32749,22.930312 -84.24805,42.576172 -1.04016,0.70255 -2.06865,1.42149 -3.09179,2.13086 -16.04613,11.11805 -30.5827,22.926962 -43.26954,34.851562 -40.82303,38.38457 -62.40072,78.15909 -52.5957,101.46094 0.69916,1.6029 1.53192,3.13259 2.50391,4.58203 10.53825,15.50047 36.65555,18.18086 69.7539,9.85938 2.25089,-0.56275 4.50317,-1.2002 6.82227,-1.86524 10.57238,-3.05237 21.79602,-7.17431 33.35742,-12.25586 2.77949,-1.22777 5.58926,-2.49076 8.41992,-3.83789 0.28988,-0.13641 0.56364,-0.27231 0.85352,-0.42578 36.49173,-18.13162 64.53488,-38.99421 70.60547,-51.5293 1.33008,-2.72662 1.64986,-5.05213 0.74609,-6.875 -4.33124,-8.78188 -34.63814,-2.84795 -71.35156,13.05664 -2.95003,1.2789 -5.93489,2.59441 -8.95313,3.9961 2.45552,-2.27986 5.01213,-4.56966 7.6211,-6.82227 4.16075,-3.58438 8.46765,-7.08919 13.05469,-10.55078 7.179,-5.43627 14.43715,-10.3502 21.58203,-14.70703 33.45643,-25.240672 50.36964,-49.116255 46.83984,-57.976565 -0.66505,-1.66943 -2.08098,-2.818438 -4.26367,-3.517578 -6.97438,-2.21847 -19.70356,0.429268 -35.16992,6.767578 -12.75504,5.23164 -27.40534,12.989804 -42.25782,22.646484 l -2.02343,1.332032 c 2e-5,0 -0.37305,0.214844 -0.37305,0.214844 2e-5,2e-5 -7.14062,4.742187 -7.14062,4.742187 -2e-5,-10e-6 4.10156,-7.513672 4.10156,-7.513672 6.08765,-11.14364 16.00381,-22.771395 28.34961,-33.572265 9.05473,-7.89689 19.40005,-15.337117 30.53515,-21.847657 4.21191,-2.46573 8.41702,-4.755292 12.62891,-6.820312 4.31422,-2.10769 8.62989,-3.980738 12.8418,-5.648438 C 651.40342,12.78462 663.35928,8.6198018 683.37891,8.8769531 Z M 386.87305,11.65625 c -1.67109,25.50496 3.27378,62.861801 14.49414,104.33789 1.99509,7.38021 4.16736,14.89151 6.55469,22.48828 1.48356,4.69104 3.01324,9.30936 4.58203,13.85547 -0.9208,1.35396 -1.84714,2.6983 -2.7168,4.04883 -13.99985,21.45508 -22.18278,41.73129 -24.24609,59.36328 -5.91714,-19.81468 -10.37276,-41.51757 -12.89649,-64.53125 -0.71619,-6.5941 -1.27719,-13.11431 -1.65234,-19.55664 -2.76247,-46.796391 3.34747,-89.21812 15.88086,-120.00586 z M 107.48242,44.855469 c 0.31934,-0.0075 0.63395,0 0.95899,0 0,-2e-5 63.04101,0 63.04101,0 5.38851,-2e-5 9.55441,1.009599 12.52149,3.037109 2.95002,2.03946 4.05658,4.677499 3.35742,7.886719 2e-5,2e-5 -7.51367,33.943359 -7.51367,33.943359 0,3e-5 -22.22071,0 -22.22071,0 2e-5,3e-5 7.30078,-33.037109 7.30078,-33.037109 h -55.63281 c -2e-5,0 -20.089842,90.802733 -20.089842,90.802733 2e-5,0 -7.246094,32.87891 -7.246094,32.87891 0,3e-5 55.578126,0 55.578126,0 0,3e-5 0.0547,-0.21289 0.0547,-0.21289 0,2e-5 11.13672,-50.30469 11.13672,-50.30469 0,-2e-5 -26.11133,0 -26.11133,0 0,-2e-5 2.5039,-11.35156 2.5039,-11.35156 -1e-5,-2e-5 48.33203,0 48.33203,0 0,-2e-5 -13.85351,62.77539 -13.85351,62.77539 -0.18757,0.89352 -0.51561,1.70245 -0.95899,2.5039 -1.14249,2.08037 -3.1365,3.86164 -5.91601,5.32813 -3.85378,2.02923 -8.46697,3.03711 -13.85547,3.03711 0,2e-5 -62.986327,0 -62.986328,0 -5.388524,2e-5 -9.554404,-1.0079 -12.521484,-3.03711 -2.95001,-2.0292 -4.073622,-4.6194 -3.357422,-7.83203 1e-5,-2e-5 27.761719,-125.494143 27.761719,-125.494143 0.71618,-3.20921 2.951426,-5.847279 6.822266,-7.886719 0.13642,-0.07331 0.289371,-0.09025 0.425781,-0.160156 3.53302,-1.7697 7.678678,-2.763823 12.468748,-2.876953 z m 98.79688,0 c -2e-5,-2e-5 79.3457,0 79.3457,0 5.32031,-2e-5 9.50362,1.009599 12.4707,3.037109 2.98417,2.03946 4.12637,4.677499 3.41016,7.886719 2e-5,2e-5 -14.81445,66.929683 -14.81445,66.929683 -0.69912,3.18874 -2.9871,5.79113 -6.875,7.83399 -3.8879,2.04966 -8.46344,3.08984 -13.80079,3.08984 h -57.6582 l -11.13672,50.25 c 0,2e-5 -1.8125,8.25977 -1.8125,8.25977 1e-5,2e-5 -21.74218,0 -21.74218,0 0,2e-5 1.65234,-7.45899 1.65234,-7.45899 0,2e-5 30.96094,-139.828121 30.96094,-139.828121 z m 109.61328,0 c -1e-5,-2e-5 21.74219,0 21.74219,0 2e-5,-2e-5 -24.61915,111.210941 -24.61915,111.210941 3e-5,2e-5 -5.38281,24.30078 -5.38281,24.30078 0,3e-5 52.00977,0 52.00977,0 0.54568,3.98854 1.18314,7.90453 1.86523,11.77539 -2e-5,2e-5 -78.22656,0 -78.22656,0 2e-5,2e-5 6.18164,-27.92188 6.18164,-27.92188 2e-5,0 26.42969,-119.365231 26.42969,-119.365231 z m -90.48242,11.830078 c 2e-5,0 -14.44141,65.117183 -14.44141,65.117183 0,-2e-5 54.19336,0 54.19336,0 -10e-6,-2e-5 14.38867,-65.117183 14.38867,-65.117183 z"
     sodipodi:nodetypes="cccccccccccccccssscccccccscccsccccccccsccccscccccsccccccsccscccccccccccccccccccccccccccccccscccccccccccscccccccccssccscccscccccccccccsccscccsscccsccscccccccccccscccccccc" />
</svg>
