%TF.GenerationSoftware,KiCad,Pcbnew,7.0.1*%
%TF.CreationDate,2023-04-17T00:19:05+03:00*%
%TF.ProjectId,exed,65786564-2e6b-4696-9361-645f70636258,rev?*%
%TF.SameCoordinates,Original*%
%TF.FileFunction,Drillmap*%
%TF.FilePolarity,Positive*%
%FSLAX45Y45*%
G04 Gerber Fmt 4.5, Leading zero omitted, Abs format (unit mm)*
G04 Created by KiCad (PCBNEW 7.0.1) date 2023-04-17 00:19:05*
%MOMM*%
%LPD*%
G01*
G04 APERTURE LIST*
%ADD10C,0.100000*%
%ADD11C,0.200000*%
%ADD12C,0.040000*%
%ADD13C,0.075000*%
%ADD14C,0.080000*%
%ADD15C,0.110000*%
%ADD16C,0.610000*%
G04 APERTURE END LIST*
D10*
X10000000Y-14500000D02*
X10000000Y-3000000D01*
X21717000Y-14513000D02*
X10000000Y-14500000D01*
X10000000Y-3000000D02*
X21717000Y-3013000D01*
X21717000Y-3013000D02*
X21717000Y-14513000D01*
D11*
D12*
X10952800Y-11105200D02*
X10992800Y-11145200D01*
X10992800Y-11105200D02*
X10952800Y-11145200D01*
X11232200Y-7401599D02*
X11272200Y-7441599D01*
X11272200Y-7401599D02*
X11232200Y-7441599D01*
X11346500Y-12832400D02*
X11386500Y-12872400D01*
X11386500Y-12832400D02*
X11346500Y-12872400D01*
X11359200Y-10863900D02*
X11399200Y-10903900D01*
X11399200Y-10863900D02*
X11359200Y-10903900D01*
X11410000Y-6901500D02*
X11450000Y-6941500D01*
X11450000Y-6901500D02*
X11410000Y-6941500D01*
X11841549Y-8362000D02*
X11881549Y-8402000D01*
X11881549Y-8362000D02*
X11841549Y-8402000D01*
X11918000Y-13505500D02*
X11958000Y-13545500D01*
X11958000Y-13505500D02*
X11918000Y-13545500D01*
X11968800Y-11410000D02*
X12008800Y-11450000D01*
X12008800Y-11410000D02*
X11968800Y-11450000D01*
X12095800Y-12362500D02*
X12135800Y-12402500D01*
X12135800Y-12362500D02*
X12095800Y-12402500D01*
X12603549Y-8616000D02*
X12643549Y-8656000D01*
X12643549Y-8616000D02*
X12603549Y-8656000D01*
X12984549Y-8362000D02*
X13024549Y-8402000D01*
X13024549Y-8362000D02*
X12984549Y-8402000D01*
X13111549Y-8616000D02*
X13151549Y-8656000D01*
X13151549Y-8616000D02*
X13111549Y-8656000D01*
X14127549Y-6965000D02*
X14167549Y-7005000D01*
X14167549Y-6965000D02*
X14127549Y-7005000D01*
X14127549Y-7219000D02*
X14167549Y-7259000D01*
X14167549Y-7219000D02*
X14127549Y-7259000D01*
X14127549Y-7473000D02*
X14167549Y-7513000D01*
X14167549Y-7473000D02*
X14127549Y-7513000D01*
X14127549Y-7727000D02*
X14167549Y-7767000D01*
X14167549Y-7727000D02*
X14127549Y-7767000D01*
X14127549Y-7981000D02*
X14167549Y-8021000D01*
X14167549Y-7981000D02*
X14127549Y-8021000D01*
X14127549Y-8235000D02*
X14167549Y-8275000D01*
X14167549Y-8235000D02*
X14127549Y-8275000D01*
X14127549Y-8489000D02*
X14167549Y-8529000D01*
X14167549Y-8489000D02*
X14127549Y-8529000D01*
X14127549Y-8743000D02*
X14167549Y-8783000D01*
X14167549Y-8743000D02*
X14127549Y-8783000D01*
X14127549Y-8997000D02*
X14167549Y-9037000D01*
X14167549Y-8997000D02*
X14127549Y-9037000D01*
X14127549Y-9251000D02*
X14167549Y-9291000D01*
X14167549Y-9251000D02*
X14127549Y-9291000D01*
X14661200Y-6863400D02*
X14701200Y-6903400D01*
X14701200Y-6863400D02*
X14661200Y-6903400D01*
X14661200Y-7117400D02*
X14701200Y-7157400D01*
X14701200Y-7117400D02*
X14661200Y-7157400D01*
X14661200Y-7371400D02*
X14701200Y-7411400D01*
X14701200Y-7371400D02*
X14661200Y-7411400D01*
X14661200Y-7625400D02*
X14701200Y-7665400D01*
X14701200Y-7625400D02*
X14661200Y-7665400D01*
X14661200Y-7879400D02*
X14701200Y-7919400D01*
X14701200Y-7879400D02*
X14661200Y-7919400D01*
X14661200Y-8133400D02*
X14701200Y-8173400D01*
X14701200Y-8133400D02*
X14661200Y-8173400D01*
X14661200Y-8387400D02*
X14701200Y-8427400D01*
X14701200Y-8387400D02*
X14661200Y-8427400D01*
X14661200Y-8641400D02*
X14701200Y-8681400D01*
X14701200Y-8641400D02*
X14661200Y-8681400D01*
X14661200Y-8895400D02*
X14701200Y-8935400D01*
X14701200Y-8895400D02*
X14661200Y-8935400D01*
X14661200Y-9149400D02*
X14701200Y-9189400D01*
X14701200Y-9149400D02*
X14661200Y-9189400D01*
X16713485Y-7245451D02*
X16753485Y-7285451D01*
X16753485Y-7245451D02*
X16713485Y-7285451D01*
X16744000Y-11791000D02*
X16784000Y-11831000D01*
X16784000Y-11791000D02*
X16744000Y-11831000D01*
X16794800Y-13226100D02*
X16834800Y-13266100D01*
X16834800Y-13226100D02*
X16794800Y-13266100D01*
X17556800Y-5504500D02*
X17596800Y-5544500D01*
X17596800Y-5504500D02*
X17556800Y-5544500D01*
X18519794Y-5248294D02*
X18559794Y-5288294D01*
X18559794Y-5248294D02*
X18519794Y-5288294D01*
X18953549Y-7725500D02*
X18993549Y-7765500D01*
X18993549Y-7725500D02*
X18953549Y-7765500D01*
X18953549Y-7979500D02*
X18993549Y-8019500D01*
X18993549Y-7979500D02*
X18953549Y-8019500D01*
X18953549Y-8233500D02*
X18993549Y-8273500D01*
X18993549Y-8233500D02*
X18953549Y-8273500D01*
X18953549Y-8487500D02*
X18993549Y-8527500D01*
X18993549Y-8487500D02*
X18953549Y-8527500D01*
X18953549Y-8741500D02*
X18993549Y-8781500D01*
X18993549Y-8741500D02*
X18953549Y-8781500D01*
X18953549Y-8995500D02*
X18993549Y-9035500D01*
X18993549Y-8995500D02*
X18953549Y-9035500D01*
X18953549Y-9249500D02*
X18993549Y-9289500D01*
X18993549Y-9249500D02*
X18953549Y-9289500D01*
X18953549Y-9503500D02*
X18993549Y-9543500D01*
X18993549Y-9503500D02*
X18953549Y-9543500D01*
X19398300Y-4196400D02*
X19438300Y-4236400D01*
X19438300Y-4196400D02*
X19398300Y-4236400D01*
X19436400Y-7676200D02*
X19476400Y-7716200D01*
X19476400Y-7676200D02*
X19436400Y-7716200D01*
X19436400Y-7930200D02*
X19476400Y-7970200D01*
X19476400Y-7930200D02*
X19436400Y-7970200D01*
X19436400Y-8184200D02*
X19476400Y-8224200D01*
X19476400Y-8184200D02*
X19436400Y-8224200D01*
X19436400Y-8438200D02*
X19476400Y-8478200D01*
X19476400Y-8438200D02*
X19436400Y-8478200D01*
X19436400Y-8692200D02*
X19476400Y-8732200D01*
X19476400Y-8692200D02*
X19436400Y-8732200D01*
X19436400Y-8946200D02*
X19476400Y-8986200D01*
X19476400Y-8946200D02*
X19436400Y-8986200D01*
X19436400Y-9200200D02*
X19476400Y-9240200D01*
X19476400Y-9200200D02*
X19436400Y-9240200D01*
X19436400Y-9454200D02*
X19476400Y-9494200D01*
X19476400Y-9454200D02*
X19436400Y-9494200D01*
D13*
X10503049Y-6605500D02*
G75*
G03*
X10503049Y-6605500I-37500J0D01*
G01*
X10630049Y-6605500D02*
G75*
G03*
X10630049Y-6605500I-37500J0D01*
G01*
X10757049Y-6605500D02*
G75*
G03*
X10757049Y-6605500I-37500J0D01*
G01*
X16485000Y-13321049D02*
G75*
G03*
X16485000Y-13321049I-37500J0D01*
G01*
X16485000Y-13448049D02*
G75*
G03*
X16485000Y-13448049I-37500J0D01*
G01*
X16485000Y-13575049D02*
G75*
G03*
X16485000Y-13575049I-37500J0D01*
G01*
D14*
X11481549Y-7073500D02*
X11481549Y-7153500D01*
X11441549Y-7113500D02*
X11521549Y-7113500D01*
X11481549Y-7327500D02*
X11481549Y-7407500D01*
X11441549Y-7367500D02*
X11521549Y-7367500D01*
X11481549Y-7581500D02*
X11481549Y-7661500D01*
X11441549Y-7621500D02*
X11521549Y-7621500D01*
X11481549Y-7835500D02*
X11481549Y-7915500D01*
X11441549Y-7875500D02*
X11521549Y-7875500D01*
X11481549Y-8089500D02*
X11481549Y-8169500D01*
X11441549Y-8129500D02*
X11521549Y-8129500D01*
X11481549Y-8343500D02*
X11481549Y-8423500D01*
X11441549Y-8383500D02*
X11521549Y-8383500D01*
X11481549Y-8597500D02*
X11481549Y-8677500D01*
X11441549Y-8637500D02*
X11521549Y-8637500D01*
X11481549Y-8851500D02*
X11481549Y-8931500D01*
X11441549Y-8891500D02*
X11521549Y-8891500D01*
X11607549Y-10882000D02*
X11607549Y-10962000D01*
X11567549Y-10922000D02*
X11647549Y-10922000D01*
X11607549Y-11136000D02*
X11607549Y-11216000D01*
X11567549Y-11176000D02*
X11647549Y-11176000D01*
X11607549Y-11390000D02*
X11607549Y-11470000D01*
X11567549Y-11430000D02*
X11647549Y-11430000D01*
X11607549Y-11644000D02*
X11607549Y-11724000D01*
X11567549Y-11684000D02*
X11647549Y-11684000D01*
X11607549Y-11898000D02*
X11607549Y-11978000D01*
X11567549Y-11938000D02*
X11647549Y-11938000D01*
X11607549Y-12152000D02*
X11607549Y-12232000D01*
X11567549Y-12192000D02*
X11647549Y-12192000D01*
X11607549Y-12406000D02*
X11607549Y-12486000D01*
X11567549Y-12446000D02*
X11647549Y-12446000D01*
X11607549Y-12660000D02*
X11607549Y-12740000D01*
X11567549Y-12700000D02*
X11647549Y-12700000D01*
X12243549Y-7073500D02*
X12243549Y-7153500D01*
X12203549Y-7113500D02*
X12283549Y-7113500D01*
X12243549Y-7327500D02*
X12243549Y-7407500D01*
X12203549Y-7367500D02*
X12283549Y-7367500D01*
X12243549Y-7581500D02*
X12243549Y-7661500D01*
X12203549Y-7621500D02*
X12283549Y-7621500D01*
X12243549Y-7835500D02*
X12243549Y-7915500D01*
X12203549Y-7875500D02*
X12283549Y-7875500D01*
X12243549Y-8089500D02*
X12243549Y-8169500D01*
X12203549Y-8129500D02*
X12283549Y-8129500D01*
X12243549Y-8343500D02*
X12243549Y-8423500D01*
X12203549Y-8383500D02*
X12283549Y-8383500D01*
X12243549Y-8597500D02*
X12243549Y-8677500D01*
X12203549Y-8637500D02*
X12283549Y-8637500D01*
X12243549Y-8851500D02*
X12243549Y-8931500D01*
X12203549Y-8891500D02*
X12283549Y-8891500D01*
X12369549Y-10882000D02*
X12369549Y-10962000D01*
X12329549Y-10922000D02*
X12409549Y-10922000D01*
X12369549Y-11136000D02*
X12369549Y-11216000D01*
X12329549Y-11176000D02*
X12409549Y-11176000D01*
X12369549Y-11390000D02*
X12369549Y-11470000D01*
X12329549Y-11430000D02*
X12409549Y-11430000D01*
X12369549Y-11644000D02*
X12369549Y-11724000D01*
X12329549Y-11684000D02*
X12409549Y-11684000D01*
X12369549Y-11898000D02*
X12369549Y-11978000D01*
X12329549Y-11938000D02*
X12409549Y-11938000D01*
X12369549Y-12152000D02*
X12369549Y-12232000D01*
X12329549Y-12192000D02*
X12409549Y-12192000D01*
X12369549Y-12406000D02*
X12369549Y-12486000D01*
X12329549Y-12446000D02*
X12409549Y-12446000D01*
X12369549Y-12660000D02*
X12369549Y-12740000D01*
X12329549Y-12700000D02*
X12409549Y-12700000D01*
X17195549Y-7580000D02*
X17195549Y-7660000D01*
X17155549Y-7620000D02*
X17235549Y-7620000D01*
X17195549Y-7834000D02*
X17195549Y-7914000D01*
X17155549Y-7874000D02*
X17235549Y-7874000D01*
X17195549Y-8088000D02*
X17195549Y-8168000D01*
X17155549Y-8128000D02*
X17235549Y-8128000D01*
X17195549Y-8342000D02*
X17195549Y-8422000D01*
X17155549Y-8382000D02*
X17235549Y-8382000D01*
X17195549Y-8596000D02*
X17195549Y-8676000D01*
X17155549Y-8636000D02*
X17235549Y-8636000D01*
X17195549Y-8850000D02*
X17195549Y-8930000D01*
X17155549Y-8890000D02*
X17235549Y-8890000D01*
X17195549Y-9104000D02*
X17195549Y-9184000D01*
X17155549Y-9144000D02*
X17235549Y-9144000D01*
X17195549Y-9358000D02*
X17195549Y-9438000D01*
X17155549Y-9398000D02*
X17235549Y-9398000D01*
X17241689Y-4183829D02*
X17241689Y-4263829D01*
X17201689Y-4223829D02*
X17281689Y-4223829D01*
X17241689Y-4437829D02*
X17241689Y-4517829D01*
X17201689Y-4477829D02*
X17281689Y-4477829D01*
X17241689Y-4691829D02*
X17241689Y-4771829D01*
X17201689Y-4731829D02*
X17281689Y-4731829D01*
X17241689Y-4945829D02*
X17241689Y-5025829D01*
X17201689Y-4985829D02*
X17281689Y-4985829D01*
X17241689Y-5199829D02*
X17241689Y-5279829D01*
X17201689Y-5239829D02*
X17281689Y-5239829D01*
X17241689Y-5453829D02*
X17241689Y-5533829D01*
X17201689Y-5493829D02*
X17281689Y-5493829D01*
X17241689Y-5707829D02*
X17241689Y-5787829D01*
X17201689Y-5747829D02*
X17281689Y-5747829D01*
X17335500Y-11758049D02*
X17335500Y-11838049D01*
X17295500Y-11798049D02*
X17375500Y-11798049D01*
X17335500Y-12520049D02*
X17335500Y-12600049D01*
X17295500Y-12560049D02*
X17375500Y-12560049D01*
X17589500Y-11758049D02*
X17589500Y-11838049D01*
X17549500Y-11798049D02*
X17629500Y-11798049D01*
X17589500Y-12520049D02*
X17589500Y-12600049D01*
X17549500Y-12560049D02*
X17629500Y-12560049D01*
X17843500Y-11758049D02*
X17843500Y-11838049D01*
X17803500Y-11798049D02*
X17883500Y-11798049D01*
X17843500Y-12520049D02*
X17843500Y-12600049D01*
X17803500Y-12560049D02*
X17883500Y-12560049D01*
X17957549Y-7580000D02*
X17957549Y-7660000D01*
X17917549Y-7620000D02*
X17997549Y-7620000D01*
X17957549Y-7834000D02*
X17957549Y-7914000D01*
X17917549Y-7874000D02*
X17997549Y-7874000D01*
X17957549Y-8088000D02*
X17957549Y-8168000D01*
X17917549Y-8128000D02*
X17997549Y-8128000D01*
X17957549Y-8342000D02*
X17957549Y-8422000D01*
X17917549Y-8382000D02*
X17997549Y-8382000D01*
X17957549Y-8596000D02*
X17957549Y-8676000D01*
X17917549Y-8636000D02*
X17997549Y-8636000D01*
X17957549Y-8850000D02*
X17957549Y-8930000D01*
X17917549Y-8890000D02*
X17997549Y-8890000D01*
X17957549Y-9104000D02*
X17957549Y-9184000D01*
X17917549Y-9144000D02*
X17997549Y-9144000D01*
X17957549Y-9358000D02*
X17957549Y-9438000D01*
X17917549Y-9398000D02*
X17997549Y-9398000D01*
X18003689Y-4183829D02*
X18003689Y-4263829D01*
X17963689Y-4223829D02*
X18043689Y-4223829D01*
X18003689Y-4437829D02*
X18003689Y-4517829D01*
X17963689Y-4477829D02*
X18043689Y-4477829D01*
X18003689Y-4691829D02*
X18003689Y-4771829D01*
X17963689Y-4731829D02*
X18043689Y-4731829D01*
X18003689Y-4945829D02*
X18003689Y-5025829D01*
X17963689Y-4985829D02*
X18043689Y-4985829D01*
X18003689Y-5199829D02*
X18003689Y-5279829D01*
X17963689Y-5239829D02*
X18043689Y-5239829D01*
X18003689Y-5453829D02*
X18003689Y-5533829D01*
X17963689Y-5493829D02*
X18043689Y-5493829D01*
X18003689Y-5707829D02*
X18003689Y-5787829D01*
X17963689Y-5747829D02*
X18043689Y-5747829D01*
X18097500Y-11758049D02*
X18097500Y-11838049D01*
X18057500Y-11798049D02*
X18137500Y-11798049D01*
X18097500Y-12520049D02*
X18097500Y-12600049D01*
X18057500Y-12560049D02*
X18137500Y-12560049D01*
X18986500Y-11758049D02*
X18986500Y-11838049D01*
X18946500Y-11798049D02*
X19026500Y-11798049D01*
X18986500Y-12520049D02*
X18986500Y-12600049D01*
X18946500Y-12560049D02*
X19026500Y-12560049D01*
X19240500Y-11758049D02*
X19240500Y-11838049D01*
X19200500Y-11798049D02*
X19280500Y-11798049D01*
X19240500Y-12520049D02*
X19240500Y-12600049D01*
X19200500Y-12560049D02*
X19280500Y-12560049D01*
X19494500Y-11758049D02*
X19494500Y-11838049D01*
X19454500Y-11798049D02*
X19534500Y-11798049D01*
X19494500Y-12520049D02*
X19494500Y-12600049D01*
X19454500Y-12560049D02*
X19534500Y-12560049D01*
X19748500Y-11758049D02*
X19748500Y-11838049D01*
X19708500Y-11798049D02*
X19788500Y-11798049D01*
X19748500Y-12520049D02*
X19748500Y-12600049D01*
X19708500Y-12560049D02*
X19788500Y-12560049D01*
D10*
X10500905Y-7402856D02*
X10500905Y-7332144D01*
X10430193Y-7332144D01*
X10430193Y-7402856D01*
X10500905Y-7402856D01*
X10550956Y-11046756D02*
X10550956Y-10976044D01*
X10480244Y-10976044D01*
X10480244Y-11046756D01*
X10550956Y-11046756D01*
X10550956Y-11300756D02*
X10550956Y-11230044D01*
X10480244Y-11230044D01*
X10480244Y-11300756D01*
X10550956Y-11300756D01*
X10754905Y-7402856D02*
X10754905Y-7332144D01*
X10684193Y-7332144D01*
X10684193Y-7402856D01*
X10754905Y-7402856D01*
X10880905Y-11046256D02*
X10880905Y-10975544D01*
X10810193Y-10975544D01*
X10810193Y-11046256D01*
X10880905Y-11046256D01*
X10880905Y-11300256D02*
X10880905Y-11229544D01*
X10810193Y-11229544D01*
X10810193Y-11300256D01*
X10880905Y-11300256D01*
X13928905Y-10957356D02*
X13928905Y-10886644D01*
X13858193Y-10886644D01*
X13858193Y-10957356D01*
X13928905Y-10957356D01*
X13928905Y-11211356D02*
X13928905Y-11140644D01*
X13858193Y-11140644D01*
X13858193Y-11211356D01*
X13928905Y-11211356D01*
X13928905Y-11846356D02*
X13928905Y-11775644D01*
X13858193Y-11775644D01*
X13858193Y-11846356D01*
X13928905Y-11846356D01*
X15325905Y-6893356D02*
X15325905Y-6822644D01*
X15255193Y-6822644D01*
X15255193Y-6893356D01*
X15325905Y-6893356D01*
X15325905Y-7147356D02*
X15325905Y-7076644D01*
X15255193Y-7076644D01*
X15255193Y-7147356D01*
X15325905Y-7147356D01*
X15325905Y-7401356D02*
X15325905Y-7330644D01*
X15255193Y-7330644D01*
X15255193Y-7401356D01*
X15325905Y-7401356D01*
X15325905Y-7655356D02*
X15325905Y-7584644D01*
X15255193Y-7584644D01*
X15255193Y-7655356D01*
X15325905Y-7655356D01*
X15325905Y-7909356D02*
X15325905Y-7838644D01*
X15255193Y-7838644D01*
X15255193Y-7909356D01*
X15325905Y-7909356D01*
X15325905Y-8163356D02*
X15325905Y-8092644D01*
X15255193Y-8092644D01*
X15255193Y-8163356D01*
X15325905Y-8163356D01*
X15325905Y-8417356D02*
X15325905Y-8346644D01*
X15255193Y-8346644D01*
X15255193Y-8417356D01*
X15325905Y-8417356D01*
X15325905Y-8671356D02*
X15325905Y-8600644D01*
X15255193Y-8600644D01*
X15255193Y-8671356D01*
X15325905Y-8671356D01*
X15325905Y-8925356D02*
X15325905Y-8854644D01*
X15255193Y-8854644D01*
X15255193Y-8925356D01*
X15325905Y-8925356D01*
X15325905Y-9179356D02*
X15325905Y-9108644D01*
X15255193Y-9108644D01*
X15255193Y-9179356D01*
X15325905Y-9179356D01*
X16261045Y-4767185D02*
X16261045Y-4696473D01*
X16190333Y-4696473D01*
X16190333Y-4767185D01*
X16261045Y-4767185D01*
X16340405Y-8034856D02*
X16340405Y-7964144D01*
X16269693Y-7964144D01*
X16269693Y-8034856D01*
X16340405Y-8034856D01*
X16515045Y-4767185D02*
X16515045Y-4696473D01*
X16444333Y-4696473D01*
X16444333Y-4767185D01*
X16515045Y-4767185D01*
X16594405Y-8034856D02*
X16594405Y-7964144D01*
X16523693Y-7964144D01*
X16523693Y-8034856D01*
X16594405Y-8034856D01*
X16769045Y-4767185D02*
X16769045Y-4696473D01*
X16698333Y-4696473D01*
X16698333Y-4767185D01*
X16769045Y-4767185D01*
X16848405Y-8034856D02*
X16848405Y-7964144D01*
X16777693Y-7964144D01*
X16777693Y-8034856D01*
X16848405Y-8034856D01*
X19276856Y-10435405D02*
X19276856Y-10364693D01*
X19206144Y-10364693D01*
X19206144Y-10435405D01*
X19276856Y-10435405D01*
X19276856Y-10689405D02*
X19276856Y-10618693D01*
X19206144Y-10618693D01*
X19206144Y-10689405D01*
X19276856Y-10689405D01*
X19276856Y-10943405D02*
X19276856Y-10872693D01*
X19206144Y-10872693D01*
X19206144Y-10943405D01*
X19276856Y-10943405D01*
X19784856Y-10435405D02*
X19784856Y-10364693D01*
X19714144Y-10364693D01*
X19714144Y-10435405D01*
X19784856Y-10435405D01*
X19784856Y-10689405D02*
X19784856Y-10618693D01*
X19714144Y-10618693D01*
X19714144Y-10689405D01*
X19784856Y-10689405D01*
X19784856Y-10943405D02*
X19784856Y-10872693D01*
X19714144Y-10872693D01*
X19714144Y-10943405D01*
X19784856Y-10943405D01*
X19890356Y-4226356D02*
X19890356Y-4155644D01*
X19819644Y-4155644D01*
X19819644Y-4226356D01*
X19890356Y-4226356D01*
X19890356Y-4480356D02*
X19890356Y-4409644D01*
X19819644Y-4409644D01*
X19819644Y-4480356D01*
X19890356Y-4480356D01*
X19890356Y-4734356D02*
X19890356Y-4663644D01*
X19819644Y-4663644D01*
X19819644Y-4734356D01*
X19890356Y-4734356D01*
X20151905Y-7655356D02*
X20151905Y-7584644D01*
X20081193Y-7584644D01*
X20081193Y-7655356D01*
X20151905Y-7655356D01*
X20151905Y-7909356D02*
X20151905Y-7838644D01*
X20081193Y-7838644D01*
X20081193Y-7909356D01*
X20151905Y-7909356D01*
X20151905Y-8163356D02*
X20151905Y-8092644D01*
X20081193Y-8092644D01*
X20081193Y-8163356D01*
X20151905Y-8163356D01*
X20151905Y-8417356D02*
X20151905Y-8346644D01*
X20081193Y-8346644D01*
X20081193Y-8417356D01*
X20151905Y-8417356D01*
X20151905Y-8671356D02*
X20151905Y-8600644D01*
X20081193Y-8600644D01*
X20081193Y-8671356D01*
X20151905Y-8671356D01*
X20151905Y-8925356D02*
X20151905Y-8854644D01*
X20081193Y-8854644D01*
X20081193Y-8925356D01*
X20151905Y-8925356D01*
X20151905Y-9179356D02*
X20151905Y-9108644D01*
X20081193Y-9108644D01*
X20081193Y-9179356D01*
X20151905Y-9179356D01*
X20151905Y-9433356D02*
X20151905Y-9362644D01*
X20081193Y-9362644D01*
X20081193Y-9433356D01*
X20151905Y-9433356D01*
X20355356Y-4226356D02*
X20355356Y-4155644D01*
X20284644Y-4155644D01*
X20284644Y-4226356D01*
X20355356Y-4226356D01*
X20355356Y-4480356D02*
X20355356Y-4409644D01*
X20284644Y-4409644D01*
X20284644Y-4480356D01*
X20355356Y-4480356D01*
X20355356Y-4734356D02*
X20355356Y-4663644D01*
X20284644Y-4663644D01*
X20284644Y-4734356D01*
X20355356Y-4734356D01*
D15*
X12448500Y-5098500D02*
X12503500Y-5043500D01*
X12448500Y-4988500D01*
X12393500Y-5043500D01*
X12448500Y-5098500D01*
X12448500Y-5352500D02*
X12503500Y-5297500D01*
X12448500Y-5242500D01*
X12393500Y-5297500D01*
X12448500Y-5352500D01*
X12448500Y-5606500D02*
X12503500Y-5551500D01*
X12448500Y-5496500D01*
X12393500Y-5551500D01*
X12448500Y-5606500D01*
X14768500Y-4844500D02*
X14823500Y-4789500D01*
X14768500Y-4734500D01*
X14713500Y-4789500D01*
X14768500Y-4844500D01*
X14768500Y-5860500D02*
X14823500Y-5805500D01*
X14768500Y-5750500D01*
X14713500Y-5805500D01*
X14768500Y-5860500D01*
X15558500Y-11964049D02*
X15613500Y-11909049D01*
X15558500Y-11854049D01*
X15503500Y-11909049D01*
X15558500Y-11964049D01*
X15558500Y-12614049D02*
X15613500Y-12559049D01*
X15558500Y-12504049D01*
X15503500Y-12559049D01*
X15558500Y-12614049D01*
X16008500Y-11964049D02*
X16063500Y-11909049D01*
X16008500Y-11854049D01*
X15953500Y-11909049D01*
X16008500Y-11964049D01*
X16008500Y-12614049D02*
X16063500Y-12559049D01*
X16008500Y-12504049D01*
X15953500Y-12559049D01*
X16008500Y-12614049D01*
D16*
X12304500Y-3595500D02*
X12914500Y-4205500D01*
X12914500Y-3595500D02*
X12304500Y-4205500D01*
X12914500Y-3900500D02*
G75*
G03*
X12914500Y-3900500I-305000J0D01*
G01*
X13828500Y-3595500D02*
X14438500Y-4205500D01*
X14438500Y-3595500D02*
X13828500Y-4205500D01*
X14438500Y-3900500D02*
G75*
G03*
X14438500Y-3900500I-305000J0D01*
G01*
D11*
X10242619Y-14830524D02*
X10242619Y-14630524D01*
X10242619Y-14630524D02*
X10290238Y-14630524D01*
X10290238Y-14630524D02*
X10318810Y-14640048D01*
X10318810Y-14640048D02*
X10337857Y-14659095D01*
X10337857Y-14659095D02*
X10347381Y-14678143D01*
X10347381Y-14678143D02*
X10356905Y-14716238D01*
X10356905Y-14716238D02*
X10356905Y-14744809D01*
X10356905Y-14744809D02*
X10347381Y-14782905D01*
X10347381Y-14782905D02*
X10337857Y-14801952D01*
X10337857Y-14801952D02*
X10318810Y-14821000D01*
X10318810Y-14821000D02*
X10290238Y-14830524D01*
X10290238Y-14830524D02*
X10242619Y-14830524D01*
X10442619Y-14830524D02*
X10442619Y-14697190D01*
X10442619Y-14735286D02*
X10452143Y-14716238D01*
X10452143Y-14716238D02*
X10461667Y-14706714D01*
X10461667Y-14706714D02*
X10480714Y-14697190D01*
X10480714Y-14697190D02*
X10499762Y-14697190D01*
X10566429Y-14830524D02*
X10566429Y-14697190D01*
X10566429Y-14630524D02*
X10556905Y-14640048D01*
X10556905Y-14640048D02*
X10566429Y-14649571D01*
X10566429Y-14649571D02*
X10575952Y-14640048D01*
X10575952Y-14640048D02*
X10566429Y-14630524D01*
X10566429Y-14630524D02*
X10566429Y-14649571D01*
X10690238Y-14830524D02*
X10671190Y-14821000D01*
X10671190Y-14821000D02*
X10661667Y-14801952D01*
X10661667Y-14801952D02*
X10661667Y-14630524D01*
X10795000Y-14830524D02*
X10775952Y-14821000D01*
X10775952Y-14821000D02*
X10766429Y-14801952D01*
X10766429Y-14801952D02*
X10766429Y-14630524D01*
X11023571Y-14830524D02*
X11023571Y-14630524D01*
X11023571Y-14630524D02*
X11090238Y-14773381D01*
X11090238Y-14773381D02*
X11156905Y-14630524D01*
X11156905Y-14630524D02*
X11156905Y-14830524D01*
X11337857Y-14830524D02*
X11337857Y-14725762D01*
X11337857Y-14725762D02*
X11328333Y-14706714D01*
X11328333Y-14706714D02*
X11309286Y-14697190D01*
X11309286Y-14697190D02*
X11271190Y-14697190D01*
X11271190Y-14697190D02*
X11252143Y-14706714D01*
X11337857Y-14821000D02*
X11318809Y-14830524D01*
X11318809Y-14830524D02*
X11271190Y-14830524D01*
X11271190Y-14830524D02*
X11252143Y-14821000D01*
X11252143Y-14821000D02*
X11242619Y-14801952D01*
X11242619Y-14801952D02*
X11242619Y-14782905D01*
X11242619Y-14782905D02*
X11252143Y-14763857D01*
X11252143Y-14763857D02*
X11271190Y-14754333D01*
X11271190Y-14754333D02*
X11318809Y-14754333D01*
X11318809Y-14754333D02*
X11337857Y-14744809D01*
X11433095Y-14697190D02*
X11433095Y-14897190D01*
X11433095Y-14706714D02*
X11452143Y-14697190D01*
X11452143Y-14697190D02*
X11490238Y-14697190D01*
X11490238Y-14697190D02*
X11509286Y-14706714D01*
X11509286Y-14706714D02*
X11518809Y-14716238D01*
X11518809Y-14716238D02*
X11528333Y-14735286D01*
X11528333Y-14735286D02*
X11528333Y-14792428D01*
X11528333Y-14792428D02*
X11518809Y-14811476D01*
X11518809Y-14811476D02*
X11509286Y-14821000D01*
X11509286Y-14821000D02*
X11490238Y-14830524D01*
X11490238Y-14830524D02*
X11452143Y-14830524D01*
X11452143Y-14830524D02*
X11433095Y-14821000D01*
X11614048Y-14811476D02*
X11623571Y-14821000D01*
X11623571Y-14821000D02*
X11614048Y-14830524D01*
X11614048Y-14830524D02*
X11604524Y-14821000D01*
X11604524Y-14821000D02*
X11614048Y-14811476D01*
X11614048Y-14811476D02*
X11614048Y-14830524D01*
X11614048Y-14706714D02*
X11623571Y-14716238D01*
X11623571Y-14716238D02*
X11614048Y-14725762D01*
X11614048Y-14725762D02*
X11604524Y-14716238D01*
X11604524Y-14716238D02*
X11614048Y-14706714D01*
X11614048Y-14706714D02*
X11614048Y-14725762D01*
D12*
X9955000Y-15138000D02*
X9995000Y-15178000D01*
X9995000Y-15138000D02*
X9955000Y-15178000D01*
D11*
X10280714Y-15050524D02*
X10299762Y-15050524D01*
X10299762Y-15050524D02*
X10318810Y-15060048D01*
X10318810Y-15060048D02*
X10328333Y-15069571D01*
X10328333Y-15069571D02*
X10337857Y-15088619D01*
X10337857Y-15088619D02*
X10347381Y-15126714D01*
X10347381Y-15126714D02*
X10347381Y-15174333D01*
X10347381Y-15174333D02*
X10337857Y-15212428D01*
X10337857Y-15212428D02*
X10328333Y-15231476D01*
X10328333Y-15231476D02*
X10318810Y-15241000D01*
X10318810Y-15241000D02*
X10299762Y-15250524D01*
X10299762Y-15250524D02*
X10280714Y-15250524D01*
X10280714Y-15250524D02*
X10261667Y-15241000D01*
X10261667Y-15241000D02*
X10252143Y-15231476D01*
X10252143Y-15231476D02*
X10242619Y-15212428D01*
X10242619Y-15212428D02*
X10233095Y-15174333D01*
X10233095Y-15174333D02*
X10233095Y-15126714D01*
X10233095Y-15126714D02*
X10242619Y-15088619D01*
X10242619Y-15088619D02*
X10252143Y-15069571D01*
X10252143Y-15069571D02*
X10261667Y-15060048D01*
X10261667Y-15060048D02*
X10280714Y-15050524D01*
X10433095Y-15231476D02*
X10442619Y-15241000D01*
X10442619Y-15241000D02*
X10433095Y-15250524D01*
X10433095Y-15250524D02*
X10423571Y-15241000D01*
X10423571Y-15241000D02*
X10433095Y-15231476D01*
X10433095Y-15231476D02*
X10433095Y-15250524D01*
X10614048Y-15117190D02*
X10614048Y-15250524D01*
X10566429Y-15041000D02*
X10518810Y-15183857D01*
X10518810Y-15183857D02*
X10642619Y-15183857D01*
X10756905Y-15050524D02*
X10775952Y-15050524D01*
X10775952Y-15050524D02*
X10795000Y-15060048D01*
X10795000Y-15060048D02*
X10804524Y-15069571D01*
X10804524Y-15069571D02*
X10814048Y-15088619D01*
X10814048Y-15088619D02*
X10823571Y-15126714D01*
X10823571Y-15126714D02*
X10823571Y-15174333D01*
X10823571Y-15174333D02*
X10814048Y-15212428D01*
X10814048Y-15212428D02*
X10804524Y-15231476D01*
X10804524Y-15231476D02*
X10795000Y-15241000D01*
X10795000Y-15241000D02*
X10775952Y-15250524D01*
X10775952Y-15250524D02*
X10756905Y-15250524D01*
X10756905Y-15250524D02*
X10737857Y-15241000D01*
X10737857Y-15241000D02*
X10728333Y-15231476D01*
X10728333Y-15231476D02*
X10718810Y-15212428D01*
X10718810Y-15212428D02*
X10709286Y-15174333D01*
X10709286Y-15174333D02*
X10709286Y-15126714D01*
X10709286Y-15126714D02*
X10718810Y-15088619D01*
X10718810Y-15088619D02*
X10728333Y-15069571D01*
X10728333Y-15069571D02*
X10737857Y-15060048D01*
X10737857Y-15060048D02*
X10756905Y-15050524D01*
X10947381Y-15050524D02*
X10966429Y-15050524D01*
X10966429Y-15050524D02*
X10985476Y-15060048D01*
X10985476Y-15060048D02*
X10995000Y-15069571D01*
X10995000Y-15069571D02*
X11004524Y-15088619D01*
X11004524Y-15088619D02*
X11014048Y-15126714D01*
X11014048Y-15126714D02*
X11014048Y-15174333D01*
X11014048Y-15174333D02*
X11004524Y-15212428D01*
X11004524Y-15212428D02*
X10995000Y-15231476D01*
X10995000Y-15231476D02*
X10985476Y-15241000D01*
X10985476Y-15241000D02*
X10966429Y-15250524D01*
X10966429Y-15250524D02*
X10947381Y-15250524D01*
X10947381Y-15250524D02*
X10928333Y-15241000D01*
X10928333Y-15241000D02*
X10918810Y-15231476D01*
X10918810Y-15231476D02*
X10909286Y-15212428D01*
X10909286Y-15212428D02*
X10899762Y-15174333D01*
X10899762Y-15174333D02*
X10899762Y-15126714D01*
X10899762Y-15126714D02*
X10909286Y-15088619D01*
X10909286Y-15088619D02*
X10918810Y-15069571D01*
X10918810Y-15069571D02*
X10928333Y-15060048D01*
X10928333Y-15060048D02*
X10947381Y-15050524D01*
X11099762Y-15250524D02*
X11099762Y-15117190D01*
X11099762Y-15136238D02*
X11109286Y-15126714D01*
X11109286Y-15126714D02*
X11128333Y-15117190D01*
X11128333Y-15117190D02*
X11156905Y-15117190D01*
X11156905Y-15117190D02*
X11175952Y-15126714D01*
X11175952Y-15126714D02*
X11185476Y-15145762D01*
X11185476Y-15145762D02*
X11185476Y-15250524D01*
X11185476Y-15145762D02*
X11195000Y-15126714D01*
X11195000Y-15126714D02*
X11214048Y-15117190D01*
X11214048Y-15117190D02*
X11242619Y-15117190D01*
X11242619Y-15117190D02*
X11261667Y-15126714D01*
X11261667Y-15126714D02*
X11271190Y-15145762D01*
X11271190Y-15145762D02*
X11271190Y-15250524D01*
X11366429Y-15250524D02*
X11366429Y-15117190D01*
X11366429Y-15136238D02*
X11375952Y-15126714D01*
X11375952Y-15126714D02*
X11395000Y-15117190D01*
X11395000Y-15117190D02*
X11423571Y-15117190D01*
X11423571Y-15117190D02*
X11442619Y-15126714D01*
X11442619Y-15126714D02*
X11452143Y-15145762D01*
X11452143Y-15145762D02*
X11452143Y-15250524D01*
X11452143Y-15145762D02*
X11461667Y-15126714D01*
X11461667Y-15126714D02*
X11480714Y-15117190D01*
X11480714Y-15117190D02*
X11509286Y-15117190D01*
X11509286Y-15117190D02*
X11528333Y-15126714D01*
X11528333Y-15126714D02*
X11537857Y-15145762D01*
X11537857Y-15145762D02*
X11537857Y-15250524D01*
X11928333Y-15041000D02*
X11756905Y-15298143D01*
X12185476Y-15050524D02*
X12204524Y-15050524D01*
X12204524Y-15050524D02*
X12223572Y-15060048D01*
X12223572Y-15060048D02*
X12233095Y-15069571D01*
X12233095Y-15069571D02*
X12242619Y-15088619D01*
X12242619Y-15088619D02*
X12252143Y-15126714D01*
X12252143Y-15126714D02*
X12252143Y-15174333D01*
X12252143Y-15174333D02*
X12242619Y-15212428D01*
X12242619Y-15212428D02*
X12233095Y-15231476D01*
X12233095Y-15231476D02*
X12223572Y-15241000D01*
X12223572Y-15241000D02*
X12204524Y-15250524D01*
X12204524Y-15250524D02*
X12185476Y-15250524D01*
X12185476Y-15250524D02*
X12166429Y-15241000D01*
X12166429Y-15241000D02*
X12156905Y-15231476D01*
X12156905Y-15231476D02*
X12147381Y-15212428D01*
X12147381Y-15212428D02*
X12137857Y-15174333D01*
X12137857Y-15174333D02*
X12137857Y-15126714D01*
X12137857Y-15126714D02*
X12147381Y-15088619D01*
X12147381Y-15088619D02*
X12156905Y-15069571D01*
X12156905Y-15069571D02*
X12166429Y-15060048D01*
X12166429Y-15060048D02*
X12185476Y-15050524D01*
X12337857Y-15231476D02*
X12347381Y-15241000D01*
X12347381Y-15241000D02*
X12337857Y-15250524D01*
X12337857Y-15250524D02*
X12328333Y-15241000D01*
X12328333Y-15241000D02*
X12337857Y-15231476D01*
X12337857Y-15231476D02*
X12337857Y-15250524D01*
X12471191Y-15050524D02*
X12490238Y-15050524D01*
X12490238Y-15050524D02*
X12509286Y-15060048D01*
X12509286Y-15060048D02*
X12518810Y-15069571D01*
X12518810Y-15069571D02*
X12528333Y-15088619D01*
X12528333Y-15088619D02*
X12537857Y-15126714D01*
X12537857Y-15126714D02*
X12537857Y-15174333D01*
X12537857Y-15174333D02*
X12528333Y-15212428D01*
X12528333Y-15212428D02*
X12518810Y-15231476D01*
X12518810Y-15231476D02*
X12509286Y-15241000D01*
X12509286Y-15241000D02*
X12490238Y-15250524D01*
X12490238Y-15250524D02*
X12471191Y-15250524D01*
X12471191Y-15250524D02*
X12452143Y-15241000D01*
X12452143Y-15241000D02*
X12442619Y-15231476D01*
X12442619Y-15231476D02*
X12433095Y-15212428D01*
X12433095Y-15212428D02*
X12423572Y-15174333D01*
X12423572Y-15174333D02*
X12423572Y-15126714D01*
X12423572Y-15126714D02*
X12433095Y-15088619D01*
X12433095Y-15088619D02*
X12442619Y-15069571D01*
X12442619Y-15069571D02*
X12452143Y-15060048D01*
X12452143Y-15060048D02*
X12471191Y-15050524D01*
X12728333Y-15250524D02*
X12614048Y-15250524D01*
X12671191Y-15250524D02*
X12671191Y-15050524D01*
X12671191Y-15050524D02*
X12652143Y-15079095D01*
X12652143Y-15079095D02*
X12633095Y-15098143D01*
X12633095Y-15098143D02*
X12614048Y-15107667D01*
X12909286Y-15050524D02*
X12814048Y-15050524D01*
X12814048Y-15050524D02*
X12804524Y-15145762D01*
X12804524Y-15145762D02*
X12814048Y-15136238D01*
X12814048Y-15136238D02*
X12833095Y-15126714D01*
X12833095Y-15126714D02*
X12880714Y-15126714D01*
X12880714Y-15126714D02*
X12899762Y-15136238D01*
X12899762Y-15136238D02*
X12909286Y-15145762D01*
X12909286Y-15145762D02*
X12918810Y-15164809D01*
X12918810Y-15164809D02*
X12918810Y-15212428D01*
X12918810Y-15212428D02*
X12909286Y-15231476D01*
X12909286Y-15231476D02*
X12899762Y-15241000D01*
X12899762Y-15241000D02*
X12880714Y-15250524D01*
X12880714Y-15250524D02*
X12833095Y-15250524D01*
X12833095Y-15250524D02*
X12814048Y-15241000D01*
X12814048Y-15241000D02*
X12804524Y-15231476D01*
X12985476Y-15050524D02*
X13118810Y-15050524D01*
X13118810Y-15050524D02*
X13033095Y-15250524D01*
X13185476Y-15050524D02*
X13185476Y-15088619D01*
X13261667Y-15050524D02*
X13261667Y-15088619D01*
X13556905Y-15326714D02*
X13547381Y-15317190D01*
X13547381Y-15317190D02*
X13528334Y-15288619D01*
X13528334Y-15288619D02*
X13518810Y-15269571D01*
X13518810Y-15269571D02*
X13509286Y-15241000D01*
X13509286Y-15241000D02*
X13499762Y-15193381D01*
X13499762Y-15193381D02*
X13499762Y-15155286D01*
X13499762Y-15155286D02*
X13509286Y-15107667D01*
X13509286Y-15107667D02*
X13518810Y-15079095D01*
X13518810Y-15079095D02*
X13528334Y-15060048D01*
X13528334Y-15060048D02*
X13547381Y-15031476D01*
X13547381Y-15031476D02*
X13556905Y-15021952D01*
X13728334Y-15050524D02*
X13633095Y-15050524D01*
X13633095Y-15050524D02*
X13623572Y-15145762D01*
X13623572Y-15145762D02*
X13633095Y-15136238D01*
X13633095Y-15136238D02*
X13652143Y-15126714D01*
X13652143Y-15126714D02*
X13699762Y-15126714D01*
X13699762Y-15126714D02*
X13718810Y-15136238D01*
X13718810Y-15136238D02*
X13728334Y-15145762D01*
X13728334Y-15145762D02*
X13737857Y-15164809D01*
X13737857Y-15164809D02*
X13737857Y-15212428D01*
X13737857Y-15212428D02*
X13728334Y-15231476D01*
X13728334Y-15231476D02*
X13718810Y-15241000D01*
X13718810Y-15241000D02*
X13699762Y-15250524D01*
X13699762Y-15250524D02*
X13652143Y-15250524D01*
X13652143Y-15250524D02*
X13633095Y-15241000D01*
X13633095Y-15241000D02*
X13623572Y-15231476D01*
X13909286Y-15117190D02*
X13909286Y-15250524D01*
X13861667Y-15041000D02*
X13814048Y-15183857D01*
X13814048Y-15183857D02*
X13937857Y-15183857D01*
X14166429Y-15250524D02*
X14166429Y-15050524D01*
X14252143Y-15250524D02*
X14252143Y-15145762D01*
X14252143Y-15145762D02*
X14242619Y-15126714D01*
X14242619Y-15126714D02*
X14223572Y-15117190D01*
X14223572Y-15117190D02*
X14195000Y-15117190D01*
X14195000Y-15117190D02*
X14175953Y-15126714D01*
X14175953Y-15126714D02*
X14166429Y-15136238D01*
X14375953Y-15250524D02*
X14356905Y-15241000D01*
X14356905Y-15241000D02*
X14347381Y-15231476D01*
X14347381Y-15231476D02*
X14337857Y-15212428D01*
X14337857Y-15212428D02*
X14337857Y-15155286D01*
X14337857Y-15155286D02*
X14347381Y-15136238D01*
X14347381Y-15136238D02*
X14356905Y-15126714D01*
X14356905Y-15126714D02*
X14375953Y-15117190D01*
X14375953Y-15117190D02*
X14404524Y-15117190D01*
X14404524Y-15117190D02*
X14423572Y-15126714D01*
X14423572Y-15126714D02*
X14433096Y-15136238D01*
X14433096Y-15136238D02*
X14442619Y-15155286D01*
X14442619Y-15155286D02*
X14442619Y-15212428D01*
X14442619Y-15212428D02*
X14433096Y-15231476D01*
X14433096Y-15231476D02*
X14423572Y-15241000D01*
X14423572Y-15241000D02*
X14404524Y-15250524D01*
X14404524Y-15250524D02*
X14375953Y-15250524D01*
X14556905Y-15250524D02*
X14537857Y-15241000D01*
X14537857Y-15241000D02*
X14528334Y-15221952D01*
X14528334Y-15221952D02*
X14528334Y-15050524D01*
X14709286Y-15241000D02*
X14690238Y-15250524D01*
X14690238Y-15250524D02*
X14652143Y-15250524D01*
X14652143Y-15250524D02*
X14633096Y-15241000D01*
X14633096Y-15241000D02*
X14623572Y-15221952D01*
X14623572Y-15221952D02*
X14623572Y-15145762D01*
X14623572Y-15145762D02*
X14633096Y-15126714D01*
X14633096Y-15126714D02*
X14652143Y-15117190D01*
X14652143Y-15117190D02*
X14690238Y-15117190D01*
X14690238Y-15117190D02*
X14709286Y-15126714D01*
X14709286Y-15126714D02*
X14718810Y-15145762D01*
X14718810Y-15145762D02*
X14718810Y-15164809D01*
X14718810Y-15164809D02*
X14623572Y-15183857D01*
X14795000Y-15241000D02*
X14814048Y-15250524D01*
X14814048Y-15250524D02*
X14852143Y-15250524D01*
X14852143Y-15250524D02*
X14871191Y-15241000D01*
X14871191Y-15241000D02*
X14880715Y-15221952D01*
X14880715Y-15221952D02*
X14880715Y-15212428D01*
X14880715Y-15212428D02*
X14871191Y-15193381D01*
X14871191Y-15193381D02*
X14852143Y-15183857D01*
X14852143Y-15183857D02*
X14823572Y-15183857D01*
X14823572Y-15183857D02*
X14804524Y-15174333D01*
X14804524Y-15174333D02*
X14795000Y-15155286D01*
X14795000Y-15155286D02*
X14795000Y-15145762D01*
X14795000Y-15145762D02*
X14804524Y-15126714D01*
X14804524Y-15126714D02*
X14823572Y-15117190D01*
X14823572Y-15117190D02*
X14852143Y-15117190D01*
X14852143Y-15117190D02*
X14871191Y-15126714D01*
X14947381Y-15326714D02*
X14956905Y-15317190D01*
X14956905Y-15317190D02*
X14975953Y-15288619D01*
X14975953Y-15288619D02*
X14985477Y-15269571D01*
X14985477Y-15269571D02*
X14995000Y-15241000D01*
X14995000Y-15241000D02*
X15004524Y-15193381D01*
X15004524Y-15193381D02*
X15004524Y-15155286D01*
X15004524Y-15155286D02*
X14995000Y-15107667D01*
X14995000Y-15107667D02*
X14985477Y-15079095D01*
X14985477Y-15079095D02*
X14975953Y-15060048D01*
X14975953Y-15060048D02*
X14956905Y-15031476D01*
X14956905Y-15031476D02*
X14947381Y-15021952D01*
D13*
X9995000Y-15422000D02*
G75*
G03*
X9995000Y-15422000I-37500J0D01*
G01*
D11*
X10280714Y-15314524D02*
X10299762Y-15314524D01*
X10299762Y-15314524D02*
X10318810Y-15324048D01*
X10318810Y-15324048D02*
X10328333Y-15333571D01*
X10328333Y-15333571D02*
X10337857Y-15352619D01*
X10337857Y-15352619D02*
X10347381Y-15390714D01*
X10347381Y-15390714D02*
X10347381Y-15438333D01*
X10347381Y-15438333D02*
X10337857Y-15476428D01*
X10337857Y-15476428D02*
X10328333Y-15495476D01*
X10328333Y-15495476D02*
X10318810Y-15505000D01*
X10318810Y-15505000D02*
X10299762Y-15514524D01*
X10299762Y-15514524D02*
X10280714Y-15514524D01*
X10280714Y-15514524D02*
X10261667Y-15505000D01*
X10261667Y-15505000D02*
X10252143Y-15495476D01*
X10252143Y-15495476D02*
X10242619Y-15476428D01*
X10242619Y-15476428D02*
X10233095Y-15438333D01*
X10233095Y-15438333D02*
X10233095Y-15390714D01*
X10233095Y-15390714D02*
X10242619Y-15352619D01*
X10242619Y-15352619D02*
X10252143Y-15333571D01*
X10252143Y-15333571D02*
X10261667Y-15324048D01*
X10261667Y-15324048D02*
X10280714Y-15314524D01*
X10433095Y-15495476D02*
X10442619Y-15505000D01*
X10442619Y-15505000D02*
X10433095Y-15514524D01*
X10433095Y-15514524D02*
X10423571Y-15505000D01*
X10423571Y-15505000D02*
X10433095Y-15495476D01*
X10433095Y-15495476D02*
X10433095Y-15514524D01*
X10509286Y-15314524D02*
X10642619Y-15314524D01*
X10642619Y-15314524D02*
X10556905Y-15514524D01*
X10814048Y-15314524D02*
X10718810Y-15314524D01*
X10718810Y-15314524D02*
X10709286Y-15409762D01*
X10709286Y-15409762D02*
X10718810Y-15400238D01*
X10718810Y-15400238D02*
X10737857Y-15390714D01*
X10737857Y-15390714D02*
X10785476Y-15390714D01*
X10785476Y-15390714D02*
X10804524Y-15400238D01*
X10804524Y-15400238D02*
X10814048Y-15409762D01*
X10814048Y-15409762D02*
X10823571Y-15428809D01*
X10823571Y-15428809D02*
X10823571Y-15476428D01*
X10823571Y-15476428D02*
X10814048Y-15495476D01*
X10814048Y-15495476D02*
X10804524Y-15505000D01*
X10804524Y-15505000D02*
X10785476Y-15514524D01*
X10785476Y-15514524D02*
X10737857Y-15514524D01*
X10737857Y-15514524D02*
X10718810Y-15505000D01*
X10718810Y-15505000D02*
X10709286Y-15495476D01*
X10947381Y-15314524D02*
X10966429Y-15314524D01*
X10966429Y-15314524D02*
X10985476Y-15324048D01*
X10985476Y-15324048D02*
X10995000Y-15333571D01*
X10995000Y-15333571D02*
X11004524Y-15352619D01*
X11004524Y-15352619D02*
X11014048Y-15390714D01*
X11014048Y-15390714D02*
X11014048Y-15438333D01*
X11014048Y-15438333D02*
X11004524Y-15476428D01*
X11004524Y-15476428D02*
X10995000Y-15495476D01*
X10995000Y-15495476D02*
X10985476Y-15505000D01*
X10985476Y-15505000D02*
X10966429Y-15514524D01*
X10966429Y-15514524D02*
X10947381Y-15514524D01*
X10947381Y-15514524D02*
X10928333Y-15505000D01*
X10928333Y-15505000D02*
X10918810Y-15495476D01*
X10918810Y-15495476D02*
X10909286Y-15476428D01*
X10909286Y-15476428D02*
X10899762Y-15438333D01*
X10899762Y-15438333D02*
X10899762Y-15390714D01*
X10899762Y-15390714D02*
X10909286Y-15352619D01*
X10909286Y-15352619D02*
X10918810Y-15333571D01*
X10918810Y-15333571D02*
X10928333Y-15324048D01*
X10928333Y-15324048D02*
X10947381Y-15314524D01*
X11099762Y-15514524D02*
X11099762Y-15381190D01*
X11099762Y-15400238D02*
X11109286Y-15390714D01*
X11109286Y-15390714D02*
X11128333Y-15381190D01*
X11128333Y-15381190D02*
X11156905Y-15381190D01*
X11156905Y-15381190D02*
X11175952Y-15390714D01*
X11175952Y-15390714D02*
X11185476Y-15409762D01*
X11185476Y-15409762D02*
X11185476Y-15514524D01*
X11185476Y-15409762D02*
X11195000Y-15390714D01*
X11195000Y-15390714D02*
X11214048Y-15381190D01*
X11214048Y-15381190D02*
X11242619Y-15381190D01*
X11242619Y-15381190D02*
X11261667Y-15390714D01*
X11261667Y-15390714D02*
X11271190Y-15409762D01*
X11271190Y-15409762D02*
X11271190Y-15514524D01*
X11366429Y-15514524D02*
X11366429Y-15381190D01*
X11366429Y-15400238D02*
X11375952Y-15390714D01*
X11375952Y-15390714D02*
X11395000Y-15381190D01*
X11395000Y-15381190D02*
X11423571Y-15381190D01*
X11423571Y-15381190D02*
X11442619Y-15390714D01*
X11442619Y-15390714D02*
X11452143Y-15409762D01*
X11452143Y-15409762D02*
X11452143Y-15514524D01*
X11452143Y-15409762D02*
X11461667Y-15390714D01*
X11461667Y-15390714D02*
X11480714Y-15381190D01*
X11480714Y-15381190D02*
X11509286Y-15381190D01*
X11509286Y-15381190D02*
X11528333Y-15390714D01*
X11528333Y-15390714D02*
X11537857Y-15409762D01*
X11537857Y-15409762D02*
X11537857Y-15514524D01*
X11928333Y-15305000D02*
X11756905Y-15562143D01*
X12185476Y-15314524D02*
X12204524Y-15314524D01*
X12204524Y-15314524D02*
X12223572Y-15324048D01*
X12223572Y-15324048D02*
X12233095Y-15333571D01*
X12233095Y-15333571D02*
X12242619Y-15352619D01*
X12242619Y-15352619D02*
X12252143Y-15390714D01*
X12252143Y-15390714D02*
X12252143Y-15438333D01*
X12252143Y-15438333D02*
X12242619Y-15476428D01*
X12242619Y-15476428D02*
X12233095Y-15495476D01*
X12233095Y-15495476D02*
X12223572Y-15505000D01*
X12223572Y-15505000D02*
X12204524Y-15514524D01*
X12204524Y-15514524D02*
X12185476Y-15514524D01*
X12185476Y-15514524D02*
X12166429Y-15505000D01*
X12166429Y-15505000D02*
X12156905Y-15495476D01*
X12156905Y-15495476D02*
X12147381Y-15476428D01*
X12147381Y-15476428D02*
X12137857Y-15438333D01*
X12137857Y-15438333D02*
X12137857Y-15390714D01*
X12137857Y-15390714D02*
X12147381Y-15352619D01*
X12147381Y-15352619D02*
X12156905Y-15333571D01*
X12156905Y-15333571D02*
X12166429Y-15324048D01*
X12166429Y-15324048D02*
X12185476Y-15314524D01*
X12337857Y-15495476D02*
X12347381Y-15505000D01*
X12347381Y-15505000D02*
X12337857Y-15514524D01*
X12337857Y-15514524D02*
X12328333Y-15505000D01*
X12328333Y-15505000D02*
X12337857Y-15495476D01*
X12337857Y-15495476D02*
X12337857Y-15514524D01*
X12471191Y-15314524D02*
X12490238Y-15314524D01*
X12490238Y-15314524D02*
X12509286Y-15324048D01*
X12509286Y-15324048D02*
X12518810Y-15333571D01*
X12518810Y-15333571D02*
X12528333Y-15352619D01*
X12528333Y-15352619D02*
X12537857Y-15390714D01*
X12537857Y-15390714D02*
X12537857Y-15438333D01*
X12537857Y-15438333D02*
X12528333Y-15476428D01*
X12528333Y-15476428D02*
X12518810Y-15495476D01*
X12518810Y-15495476D02*
X12509286Y-15505000D01*
X12509286Y-15505000D02*
X12490238Y-15514524D01*
X12490238Y-15514524D02*
X12471191Y-15514524D01*
X12471191Y-15514524D02*
X12452143Y-15505000D01*
X12452143Y-15505000D02*
X12442619Y-15495476D01*
X12442619Y-15495476D02*
X12433095Y-15476428D01*
X12433095Y-15476428D02*
X12423572Y-15438333D01*
X12423572Y-15438333D02*
X12423572Y-15390714D01*
X12423572Y-15390714D02*
X12433095Y-15352619D01*
X12433095Y-15352619D02*
X12442619Y-15333571D01*
X12442619Y-15333571D02*
X12452143Y-15324048D01*
X12452143Y-15324048D02*
X12471191Y-15314524D01*
X12614048Y-15333571D02*
X12623572Y-15324048D01*
X12623572Y-15324048D02*
X12642619Y-15314524D01*
X12642619Y-15314524D02*
X12690238Y-15314524D01*
X12690238Y-15314524D02*
X12709286Y-15324048D01*
X12709286Y-15324048D02*
X12718810Y-15333571D01*
X12718810Y-15333571D02*
X12728333Y-15352619D01*
X12728333Y-15352619D02*
X12728333Y-15371667D01*
X12728333Y-15371667D02*
X12718810Y-15400238D01*
X12718810Y-15400238D02*
X12604524Y-15514524D01*
X12604524Y-15514524D02*
X12728333Y-15514524D01*
X12823572Y-15514524D02*
X12861667Y-15514524D01*
X12861667Y-15514524D02*
X12880714Y-15505000D01*
X12880714Y-15505000D02*
X12890238Y-15495476D01*
X12890238Y-15495476D02*
X12909286Y-15466905D01*
X12909286Y-15466905D02*
X12918810Y-15428809D01*
X12918810Y-15428809D02*
X12918810Y-15352619D01*
X12918810Y-15352619D02*
X12909286Y-15333571D01*
X12909286Y-15333571D02*
X12899762Y-15324048D01*
X12899762Y-15324048D02*
X12880714Y-15314524D01*
X12880714Y-15314524D02*
X12842619Y-15314524D01*
X12842619Y-15314524D02*
X12823572Y-15324048D01*
X12823572Y-15324048D02*
X12814048Y-15333571D01*
X12814048Y-15333571D02*
X12804524Y-15352619D01*
X12804524Y-15352619D02*
X12804524Y-15400238D01*
X12804524Y-15400238D02*
X12814048Y-15419286D01*
X12814048Y-15419286D02*
X12823572Y-15428809D01*
X12823572Y-15428809D02*
X12842619Y-15438333D01*
X12842619Y-15438333D02*
X12880714Y-15438333D01*
X12880714Y-15438333D02*
X12899762Y-15428809D01*
X12899762Y-15428809D02*
X12909286Y-15419286D01*
X12909286Y-15419286D02*
X12918810Y-15400238D01*
X13099762Y-15314524D02*
X13004524Y-15314524D01*
X13004524Y-15314524D02*
X12995000Y-15409762D01*
X12995000Y-15409762D02*
X13004524Y-15400238D01*
X13004524Y-15400238D02*
X13023572Y-15390714D01*
X13023572Y-15390714D02*
X13071191Y-15390714D01*
X13071191Y-15390714D02*
X13090238Y-15400238D01*
X13090238Y-15400238D02*
X13099762Y-15409762D01*
X13099762Y-15409762D02*
X13109286Y-15428809D01*
X13109286Y-15428809D02*
X13109286Y-15476428D01*
X13109286Y-15476428D02*
X13099762Y-15495476D01*
X13099762Y-15495476D02*
X13090238Y-15505000D01*
X13090238Y-15505000D02*
X13071191Y-15514524D01*
X13071191Y-15514524D02*
X13023572Y-15514524D01*
X13023572Y-15514524D02*
X13004524Y-15505000D01*
X13004524Y-15505000D02*
X12995000Y-15495476D01*
X13185476Y-15314524D02*
X13185476Y-15352619D01*
X13261667Y-15314524D02*
X13261667Y-15352619D01*
X13556905Y-15590714D02*
X13547381Y-15581190D01*
X13547381Y-15581190D02*
X13528334Y-15552619D01*
X13528334Y-15552619D02*
X13518810Y-15533571D01*
X13518810Y-15533571D02*
X13509286Y-15505000D01*
X13509286Y-15505000D02*
X13499762Y-15457381D01*
X13499762Y-15457381D02*
X13499762Y-15419286D01*
X13499762Y-15419286D02*
X13509286Y-15371667D01*
X13509286Y-15371667D02*
X13518810Y-15343095D01*
X13518810Y-15343095D02*
X13528334Y-15324048D01*
X13528334Y-15324048D02*
X13547381Y-15295476D01*
X13547381Y-15295476D02*
X13556905Y-15285952D01*
X13718810Y-15314524D02*
X13680714Y-15314524D01*
X13680714Y-15314524D02*
X13661667Y-15324048D01*
X13661667Y-15324048D02*
X13652143Y-15333571D01*
X13652143Y-15333571D02*
X13633095Y-15362143D01*
X13633095Y-15362143D02*
X13623572Y-15400238D01*
X13623572Y-15400238D02*
X13623572Y-15476428D01*
X13623572Y-15476428D02*
X13633095Y-15495476D01*
X13633095Y-15495476D02*
X13642619Y-15505000D01*
X13642619Y-15505000D02*
X13661667Y-15514524D01*
X13661667Y-15514524D02*
X13699762Y-15514524D01*
X13699762Y-15514524D02*
X13718810Y-15505000D01*
X13718810Y-15505000D02*
X13728334Y-15495476D01*
X13728334Y-15495476D02*
X13737857Y-15476428D01*
X13737857Y-15476428D02*
X13737857Y-15428809D01*
X13737857Y-15428809D02*
X13728334Y-15409762D01*
X13728334Y-15409762D02*
X13718810Y-15400238D01*
X13718810Y-15400238D02*
X13699762Y-15390714D01*
X13699762Y-15390714D02*
X13661667Y-15390714D01*
X13661667Y-15390714D02*
X13642619Y-15400238D01*
X13642619Y-15400238D02*
X13633095Y-15409762D01*
X13633095Y-15409762D02*
X13623572Y-15428809D01*
X13975953Y-15514524D02*
X13975953Y-15314524D01*
X14061667Y-15514524D02*
X14061667Y-15409762D01*
X14061667Y-15409762D02*
X14052143Y-15390714D01*
X14052143Y-15390714D02*
X14033096Y-15381190D01*
X14033096Y-15381190D02*
X14004524Y-15381190D01*
X14004524Y-15381190D02*
X13985476Y-15390714D01*
X13985476Y-15390714D02*
X13975953Y-15400238D01*
X14185476Y-15514524D02*
X14166429Y-15505000D01*
X14166429Y-15505000D02*
X14156905Y-15495476D01*
X14156905Y-15495476D02*
X14147381Y-15476428D01*
X14147381Y-15476428D02*
X14147381Y-15419286D01*
X14147381Y-15419286D02*
X14156905Y-15400238D01*
X14156905Y-15400238D02*
X14166429Y-15390714D01*
X14166429Y-15390714D02*
X14185476Y-15381190D01*
X14185476Y-15381190D02*
X14214048Y-15381190D01*
X14214048Y-15381190D02*
X14233096Y-15390714D01*
X14233096Y-15390714D02*
X14242619Y-15400238D01*
X14242619Y-15400238D02*
X14252143Y-15419286D01*
X14252143Y-15419286D02*
X14252143Y-15476428D01*
X14252143Y-15476428D02*
X14242619Y-15495476D01*
X14242619Y-15495476D02*
X14233096Y-15505000D01*
X14233096Y-15505000D02*
X14214048Y-15514524D01*
X14214048Y-15514524D02*
X14185476Y-15514524D01*
X14366429Y-15514524D02*
X14347381Y-15505000D01*
X14347381Y-15505000D02*
X14337857Y-15485952D01*
X14337857Y-15485952D02*
X14337857Y-15314524D01*
X14518810Y-15505000D02*
X14499762Y-15514524D01*
X14499762Y-15514524D02*
X14461667Y-15514524D01*
X14461667Y-15514524D02*
X14442619Y-15505000D01*
X14442619Y-15505000D02*
X14433096Y-15485952D01*
X14433096Y-15485952D02*
X14433096Y-15409762D01*
X14433096Y-15409762D02*
X14442619Y-15390714D01*
X14442619Y-15390714D02*
X14461667Y-15381190D01*
X14461667Y-15381190D02*
X14499762Y-15381190D01*
X14499762Y-15381190D02*
X14518810Y-15390714D01*
X14518810Y-15390714D02*
X14528334Y-15409762D01*
X14528334Y-15409762D02*
X14528334Y-15428809D01*
X14528334Y-15428809D02*
X14433096Y-15447857D01*
X14604524Y-15505000D02*
X14623572Y-15514524D01*
X14623572Y-15514524D02*
X14661667Y-15514524D01*
X14661667Y-15514524D02*
X14680715Y-15505000D01*
X14680715Y-15505000D02*
X14690238Y-15485952D01*
X14690238Y-15485952D02*
X14690238Y-15476428D01*
X14690238Y-15476428D02*
X14680715Y-15457381D01*
X14680715Y-15457381D02*
X14661667Y-15447857D01*
X14661667Y-15447857D02*
X14633096Y-15447857D01*
X14633096Y-15447857D02*
X14614048Y-15438333D01*
X14614048Y-15438333D02*
X14604524Y-15419286D01*
X14604524Y-15419286D02*
X14604524Y-15409762D01*
X14604524Y-15409762D02*
X14614048Y-15390714D01*
X14614048Y-15390714D02*
X14633096Y-15381190D01*
X14633096Y-15381190D02*
X14661667Y-15381190D01*
X14661667Y-15381190D02*
X14680715Y-15390714D01*
X14756905Y-15590714D02*
X14766429Y-15581190D01*
X14766429Y-15581190D02*
X14785477Y-15552619D01*
X14785477Y-15552619D02*
X14795000Y-15533571D01*
X14795000Y-15533571D02*
X14804524Y-15505000D01*
X14804524Y-15505000D02*
X14814048Y-15457381D01*
X14814048Y-15457381D02*
X14814048Y-15419286D01*
X14814048Y-15419286D02*
X14804524Y-15371667D01*
X14804524Y-15371667D02*
X14795000Y-15343095D01*
X14795000Y-15343095D02*
X14785477Y-15324048D01*
X14785477Y-15324048D02*
X14766429Y-15295476D01*
X14766429Y-15295476D02*
X14756905Y-15285952D01*
D14*
X9955000Y-15646000D02*
X9955000Y-15726000D01*
X9915000Y-15686000D02*
X9995000Y-15686000D01*
D11*
X10280714Y-15578524D02*
X10299762Y-15578524D01*
X10299762Y-15578524D02*
X10318810Y-15588048D01*
X10318810Y-15588048D02*
X10328333Y-15597571D01*
X10328333Y-15597571D02*
X10337857Y-15616619D01*
X10337857Y-15616619D02*
X10347381Y-15654714D01*
X10347381Y-15654714D02*
X10347381Y-15702333D01*
X10347381Y-15702333D02*
X10337857Y-15740428D01*
X10337857Y-15740428D02*
X10328333Y-15759476D01*
X10328333Y-15759476D02*
X10318810Y-15769000D01*
X10318810Y-15769000D02*
X10299762Y-15778524D01*
X10299762Y-15778524D02*
X10280714Y-15778524D01*
X10280714Y-15778524D02*
X10261667Y-15769000D01*
X10261667Y-15769000D02*
X10252143Y-15759476D01*
X10252143Y-15759476D02*
X10242619Y-15740428D01*
X10242619Y-15740428D02*
X10233095Y-15702333D01*
X10233095Y-15702333D02*
X10233095Y-15654714D01*
X10233095Y-15654714D02*
X10242619Y-15616619D01*
X10242619Y-15616619D02*
X10252143Y-15597571D01*
X10252143Y-15597571D02*
X10261667Y-15588048D01*
X10261667Y-15588048D02*
X10280714Y-15578524D01*
X10433095Y-15759476D02*
X10442619Y-15769000D01*
X10442619Y-15769000D02*
X10433095Y-15778524D01*
X10433095Y-15778524D02*
X10423571Y-15769000D01*
X10423571Y-15769000D02*
X10433095Y-15759476D01*
X10433095Y-15759476D02*
X10433095Y-15778524D01*
X10556905Y-15664238D02*
X10537857Y-15654714D01*
X10537857Y-15654714D02*
X10528333Y-15645190D01*
X10528333Y-15645190D02*
X10518810Y-15626143D01*
X10518810Y-15626143D02*
X10518810Y-15616619D01*
X10518810Y-15616619D02*
X10528333Y-15597571D01*
X10528333Y-15597571D02*
X10537857Y-15588048D01*
X10537857Y-15588048D02*
X10556905Y-15578524D01*
X10556905Y-15578524D02*
X10595000Y-15578524D01*
X10595000Y-15578524D02*
X10614048Y-15588048D01*
X10614048Y-15588048D02*
X10623571Y-15597571D01*
X10623571Y-15597571D02*
X10633095Y-15616619D01*
X10633095Y-15616619D02*
X10633095Y-15626143D01*
X10633095Y-15626143D02*
X10623571Y-15645190D01*
X10623571Y-15645190D02*
X10614048Y-15654714D01*
X10614048Y-15654714D02*
X10595000Y-15664238D01*
X10595000Y-15664238D02*
X10556905Y-15664238D01*
X10556905Y-15664238D02*
X10537857Y-15673762D01*
X10537857Y-15673762D02*
X10528333Y-15683286D01*
X10528333Y-15683286D02*
X10518810Y-15702333D01*
X10518810Y-15702333D02*
X10518810Y-15740428D01*
X10518810Y-15740428D02*
X10528333Y-15759476D01*
X10528333Y-15759476D02*
X10537857Y-15769000D01*
X10537857Y-15769000D02*
X10556905Y-15778524D01*
X10556905Y-15778524D02*
X10595000Y-15778524D01*
X10595000Y-15778524D02*
X10614048Y-15769000D01*
X10614048Y-15769000D02*
X10623571Y-15759476D01*
X10623571Y-15759476D02*
X10633095Y-15740428D01*
X10633095Y-15740428D02*
X10633095Y-15702333D01*
X10633095Y-15702333D02*
X10623571Y-15683286D01*
X10623571Y-15683286D02*
X10614048Y-15673762D01*
X10614048Y-15673762D02*
X10595000Y-15664238D01*
X10756905Y-15578524D02*
X10775952Y-15578524D01*
X10775952Y-15578524D02*
X10795000Y-15588048D01*
X10795000Y-15588048D02*
X10804524Y-15597571D01*
X10804524Y-15597571D02*
X10814048Y-15616619D01*
X10814048Y-15616619D02*
X10823571Y-15654714D01*
X10823571Y-15654714D02*
X10823571Y-15702333D01*
X10823571Y-15702333D02*
X10814048Y-15740428D01*
X10814048Y-15740428D02*
X10804524Y-15759476D01*
X10804524Y-15759476D02*
X10795000Y-15769000D01*
X10795000Y-15769000D02*
X10775952Y-15778524D01*
X10775952Y-15778524D02*
X10756905Y-15778524D01*
X10756905Y-15778524D02*
X10737857Y-15769000D01*
X10737857Y-15769000D02*
X10728333Y-15759476D01*
X10728333Y-15759476D02*
X10718810Y-15740428D01*
X10718810Y-15740428D02*
X10709286Y-15702333D01*
X10709286Y-15702333D02*
X10709286Y-15654714D01*
X10709286Y-15654714D02*
X10718810Y-15616619D01*
X10718810Y-15616619D02*
X10728333Y-15597571D01*
X10728333Y-15597571D02*
X10737857Y-15588048D01*
X10737857Y-15588048D02*
X10756905Y-15578524D01*
X10947381Y-15578524D02*
X10966429Y-15578524D01*
X10966429Y-15578524D02*
X10985476Y-15588048D01*
X10985476Y-15588048D02*
X10995000Y-15597571D01*
X10995000Y-15597571D02*
X11004524Y-15616619D01*
X11004524Y-15616619D02*
X11014048Y-15654714D01*
X11014048Y-15654714D02*
X11014048Y-15702333D01*
X11014048Y-15702333D02*
X11004524Y-15740428D01*
X11004524Y-15740428D02*
X10995000Y-15759476D01*
X10995000Y-15759476D02*
X10985476Y-15769000D01*
X10985476Y-15769000D02*
X10966429Y-15778524D01*
X10966429Y-15778524D02*
X10947381Y-15778524D01*
X10947381Y-15778524D02*
X10928333Y-15769000D01*
X10928333Y-15769000D02*
X10918810Y-15759476D01*
X10918810Y-15759476D02*
X10909286Y-15740428D01*
X10909286Y-15740428D02*
X10899762Y-15702333D01*
X10899762Y-15702333D02*
X10899762Y-15654714D01*
X10899762Y-15654714D02*
X10909286Y-15616619D01*
X10909286Y-15616619D02*
X10918810Y-15597571D01*
X10918810Y-15597571D02*
X10928333Y-15588048D01*
X10928333Y-15588048D02*
X10947381Y-15578524D01*
X11099762Y-15778524D02*
X11099762Y-15645190D01*
X11099762Y-15664238D02*
X11109286Y-15654714D01*
X11109286Y-15654714D02*
X11128333Y-15645190D01*
X11128333Y-15645190D02*
X11156905Y-15645190D01*
X11156905Y-15645190D02*
X11175952Y-15654714D01*
X11175952Y-15654714D02*
X11185476Y-15673762D01*
X11185476Y-15673762D02*
X11185476Y-15778524D01*
X11185476Y-15673762D02*
X11195000Y-15654714D01*
X11195000Y-15654714D02*
X11214048Y-15645190D01*
X11214048Y-15645190D02*
X11242619Y-15645190D01*
X11242619Y-15645190D02*
X11261667Y-15654714D01*
X11261667Y-15654714D02*
X11271190Y-15673762D01*
X11271190Y-15673762D02*
X11271190Y-15778524D01*
X11366429Y-15778524D02*
X11366429Y-15645190D01*
X11366429Y-15664238D02*
X11375952Y-15654714D01*
X11375952Y-15654714D02*
X11395000Y-15645190D01*
X11395000Y-15645190D02*
X11423571Y-15645190D01*
X11423571Y-15645190D02*
X11442619Y-15654714D01*
X11442619Y-15654714D02*
X11452143Y-15673762D01*
X11452143Y-15673762D02*
X11452143Y-15778524D01*
X11452143Y-15673762D02*
X11461667Y-15654714D01*
X11461667Y-15654714D02*
X11480714Y-15645190D01*
X11480714Y-15645190D02*
X11509286Y-15645190D01*
X11509286Y-15645190D02*
X11528333Y-15654714D01*
X11528333Y-15654714D02*
X11537857Y-15673762D01*
X11537857Y-15673762D02*
X11537857Y-15778524D01*
X11928333Y-15569000D02*
X11756905Y-15826143D01*
X12185476Y-15578524D02*
X12204524Y-15578524D01*
X12204524Y-15578524D02*
X12223572Y-15588048D01*
X12223572Y-15588048D02*
X12233095Y-15597571D01*
X12233095Y-15597571D02*
X12242619Y-15616619D01*
X12242619Y-15616619D02*
X12252143Y-15654714D01*
X12252143Y-15654714D02*
X12252143Y-15702333D01*
X12252143Y-15702333D02*
X12242619Y-15740428D01*
X12242619Y-15740428D02*
X12233095Y-15759476D01*
X12233095Y-15759476D02*
X12223572Y-15769000D01*
X12223572Y-15769000D02*
X12204524Y-15778524D01*
X12204524Y-15778524D02*
X12185476Y-15778524D01*
X12185476Y-15778524D02*
X12166429Y-15769000D01*
X12166429Y-15769000D02*
X12156905Y-15759476D01*
X12156905Y-15759476D02*
X12147381Y-15740428D01*
X12147381Y-15740428D02*
X12137857Y-15702333D01*
X12137857Y-15702333D02*
X12137857Y-15654714D01*
X12137857Y-15654714D02*
X12147381Y-15616619D01*
X12147381Y-15616619D02*
X12156905Y-15597571D01*
X12156905Y-15597571D02*
X12166429Y-15588048D01*
X12166429Y-15588048D02*
X12185476Y-15578524D01*
X12337857Y-15759476D02*
X12347381Y-15769000D01*
X12347381Y-15769000D02*
X12337857Y-15778524D01*
X12337857Y-15778524D02*
X12328333Y-15769000D01*
X12328333Y-15769000D02*
X12337857Y-15759476D01*
X12337857Y-15759476D02*
X12337857Y-15778524D01*
X12471191Y-15578524D02*
X12490238Y-15578524D01*
X12490238Y-15578524D02*
X12509286Y-15588048D01*
X12509286Y-15588048D02*
X12518810Y-15597571D01*
X12518810Y-15597571D02*
X12528333Y-15616619D01*
X12528333Y-15616619D02*
X12537857Y-15654714D01*
X12537857Y-15654714D02*
X12537857Y-15702333D01*
X12537857Y-15702333D02*
X12528333Y-15740428D01*
X12528333Y-15740428D02*
X12518810Y-15759476D01*
X12518810Y-15759476D02*
X12509286Y-15769000D01*
X12509286Y-15769000D02*
X12490238Y-15778524D01*
X12490238Y-15778524D02*
X12471191Y-15778524D01*
X12471191Y-15778524D02*
X12452143Y-15769000D01*
X12452143Y-15769000D02*
X12442619Y-15759476D01*
X12442619Y-15759476D02*
X12433095Y-15740428D01*
X12433095Y-15740428D02*
X12423572Y-15702333D01*
X12423572Y-15702333D02*
X12423572Y-15654714D01*
X12423572Y-15654714D02*
X12433095Y-15616619D01*
X12433095Y-15616619D02*
X12442619Y-15597571D01*
X12442619Y-15597571D02*
X12452143Y-15588048D01*
X12452143Y-15588048D02*
X12471191Y-15578524D01*
X12604524Y-15578524D02*
X12728333Y-15578524D01*
X12728333Y-15578524D02*
X12661667Y-15654714D01*
X12661667Y-15654714D02*
X12690238Y-15654714D01*
X12690238Y-15654714D02*
X12709286Y-15664238D01*
X12709286Y-15664238D02*
X12718810Y-15673762D01*
X12718810Y-15673762D02*
X12728333Y-15692809D01*
X12728333Y-15692809D02*
X12728333Y-15740428D01*
X12728333Y-15740428D02*
X12718810Y-15759476D01*
X12718810Y-15759476D02*
X12709286Y-15769000D01*
X12709286Y-15769000D02*
X12690238Y-15778524D01*
X12690238Y-15778524D02*
X12633095Y-15778524D01*
X12633095Y-15778524D02*
X12614048Y-15769000D01*
X12614048Y-15769000D02*
X12604524Y-15759476D01*
X12918810Y-15778524D02*
X12804524Y-15778524D01*
X12861667Y-15778524D02*
X12861667Y-15578524D01*
X12861667Y-15578524D02*
X12842619Y-15607095D01*
X12842619Y-15607095D02*
X12823572Y-15626143D01*
X12823572Y-15626143D02*
X12804524Y-15635667D01*
X13099762Y-15578524D02*
X13004524Y-15578524D01*
X13004524Y-15578524D02*
X12995000Y-15673762D01*
X12995000Y-15673762D02*
X13004524Y-15664238D01*
X13004524Y-15664238D02*
X13023572Y-15654714D01*
X13023572Y-15654714D02*
X13071191Y-15654714D01*
X13071191Y-15654714D02*
X13090238Y-15664238D01*
X13090238Y-15664238D02*
X13099762Y-15673762D01*
X13099762Y-15673762D02*
X13109286Y-15692809D01*
X13109286Y-15692809D02*
X13109286Y-15740428D01*
X13109286Y-15740428D02*
X13099762Y-15759476D01*
X13099762Y-15759476D02*
X13090238Y-15769000D01*
X13090238Y-15769000D02*
X13071191Y-15778524D01*
X13071191Y-15778524D02*
X13023572Y-15778524D01*
X13023572Y-15778524D02*
X13004524Y-15769000D01*
X13004524Y-15769000D02*
X12995000Y-15759476D01*
X13185476Y-15578524D02*
X13185476Y-15616619D01*
X13261667Y-15578524D02*
X13261667Y-15616619D01*
X13556905Y-15854714D02*
X13547381Y-15845190D01*
X13547381Y-15845190D02*
X13528334Y-15816619D01*
X13528334Y-15816619D02*
X13518810Y-15797571D01*
X13518810Y-15797571D02*
X13509286Y-15769000D01*
X13509286Y-15769000D02*
X13499762Y-15721381D01*
X13499762Y-15721381D02*
X13499762Y-15683286D01*
X13499762Y-15683286D02*
X13509286Y-15635667D01*
X13509286Y-15635667D02*
X13518810Y-15607095D01*
X13518810Y-15607095D02*
X13528334Y-15588048D01*
X13528334Y-15588048D02*
X13547381Y-15559476D01*
X13547381Y-15559476D02*
X13556905Y-15549952D01*
X13614048Y-15578524D02*
X13747381Y-15578524D01*
X13747381Y-15578524D02*
X13661667Y-15778524D01*
X13852143Y-15664238D02*
X13833095Y-15654714D01*
X13833095Y-15654714D02*
X13823572Y-15645190D01*
X13823572Y-15645190D02*
X13814048Y-15626143D01*
X13814048Y-15626143D02*
X13814048Y-15616619D01*
X13814048Y-15616619D02*
X13823572Y-15597571D01*
X13823572Y-15597571D02*
X13833095Y-15588048D01*
X13833095Y-15588048D02*
X13852143Y-15578524D01*
X13852143Y-15578524D02*
X13890238Y-15578524D01*
X13890238Y-15578524D02*
X13909286Y-15588048D01*
X13909286Y-15588048D02*
X13918810Y-15597571D01*
X13918810Y-15597571D02*
X13928334Y-15616619D01*
X13928334Y-15616619D02*
X13928334Y-15626143D01*
X13928334Y-15626143D02*
X13918810Y-15645190D01*
X13918810Y-15645190D02*
X13909286Y-15654714D01*
X13909286Y-15654714D02*
X13890238Y-15664238D01*
X13890238Y-15664238D02*
X13852143Y-15664238D01*
X13852143Y-15664238D02*
X13833095Y-15673762D01*
X13833095Y-15673762D02*
X13823572Y-15683286D01*
X13823572Y-15683286D02*
X13814048Y-15702333D01*
X13814048Y-15702333D02*
X13814048Y-15740428D01*
X13814048Y-15740428D02*
X13823572Y-15759476D01*
X13823572Y-15759476D02*
X13833095Y-15769000D01*
X13833095Y-15769000D02*
X13852143Y-15778524D01*
X13852143Y-15778524D02*
X13890238Y-15778524D01*
X13890238Y-15778524D02*
X13909286Y-15769000D01*
X13909286Y-15769000D02*
X13918810Y-15759476D01*
X13918810Y-15759476D02*
X13928334Y-15740428D01*
X13928334Y-15740428D02*
X13928334Y-15702333D01*
X13928334Y-15702333D02*
X13918810Y-15683286D01*
X13918810Y-15683286D02*
X13909286Y-15673762D01*
X13909286Y-15673762D02*
X13890238Y-15664238D01*
X14166429Y-15778524D02*
X14166429Y-15578524D01*
X14252143Y-15778524D02*
X14252143Y-15673762D01*
X14252143Y-15673762D02*
X14242619Y-15654714D01*
X14242619Y-15654714D02*
X14223572Y-15645190D01*
X14223572Y-15645190D02*
X14195000Y-15645190D01*
X14195000Y-15645190D02*
X14175953Y-15654714D01*
X14175953Y-15654714D02*
X14166429Y-15664238D01*
X14375953Y-15778524D02*
X14356905Y-15769000D01*
X14356905Y-15769000D02*
X14347381Y-15759476D01*
X14347381Y-15759476D02*
X14337857Y-15740428D01*
X14337857Y-15740428D02*
X14337857Y-15683286D01*
X14337857Y-15683286D02*
X14347381Y-15664238D01*
X14347381Y-15664238D02*
X14356905Y-15654714D01*
X14356905Y-15654714D02*
X14375953Y-15645190D01*
X14375953Y-15645190D02*
X14404524Y-15645190D01*
X14404524Y-15645190D02*
X14423572Y-15654714D01*
X14423572Y-15654714D02*
X14433096Y-15664238D01*
X14433096Y-15664238D02*
X14442619Y-15683286D01*
X14442619Y-15683286D02*
X14442619Y-15740428D01*
X14442619Y-15740428D02*
X14433096Y-15759476D01*
X14433096Y-15759476D02*
X14423572Y-15769000D01*
X14423572Y-15769000D02*
X14404524Y-15778524D01*
X14404524Y-15778524D02*
X14375953Y-15778524D01*
X14556905Y-15778524D02*
X14537857Y-15769000D01*
X14537857Y-15769000D02*
X14528334Y-15749952D01*
X14528334Y-15749952D02*
X14528334Y-15578524D01*
X14709286Y-15769000D02*
X14690238Y-15778524D01*
X14690238Y-15778524D02*
X14652143Y-15778524D01*
X14652143Y-15778524D02*
X14633096Y-15769000D01*
X14633096Y-15769000D02*
X14623572Y-15749952D01*
X14623572Y-15749952D02*
X14623572Y-15673762D01*
X14623572Y-15673762D02*
X14633096Y-15654714D01*
X14633096Y-15654714D02*
X14652143Y-15645190D01*
X14652143Y-15645190D02*
X14690238Y-15645190D01*
X14690238Y-15645190D02*
X14709286Y-15654714D01*
X14709286Y-15654714D02*
X14718810Y-15673762D01*
X14718810Y-15673762D02*
X14718810Y-15692809D01*
X14718810Y-15692809D02*
X14623572Y-15711857D01*
X14795000Y-15769000D02*
X14814048Y-15778524D01*
X14814048Y-15778524D02*
X14852143Y-15778524D01*
X14852143Y-15778524D02*
X14871191Y-15769000D01*
X14871191Y-15769000D02*
X14880715Y-15749952D01*
X14880715Y-15749952D02*
X14880715Y-15740428D01*
X14880715Y-15740428D02*
X14871191Y-15721381D01*
X14871191Y-15721381D02*
X14852143Y-15711857D01*
X14852143Y-15711857D02*
X14823572Y-15711857D01*
X14823572Y-15711857D02*
X14804524Y-15702333D01*
X14804524Y-15702333D02*
X14795000Y-15683286D01*
X14795000Y-15683286D02*
X14795000Y-15673762D01*
X14795000Y-15673762D02*
X14804524Y-15654714D01*
X14804524Y-15654714D02*
X14823572Y-15645190D01*
X14823572Y-15645190D02*
X14852143Y-15645190D01*
X14852143Y-15645190D02*
X14871191Y-15654714D01*
X14947381Y-15854714D02*
X14956905Y-15845190D01*
X14956905Y-15845190D02*
X14975953Y-15816619D01*
X14975953Y-15816619D02*
X14985477Y-15797571D01*
X14985477Y-15797571D02*
X14995000Y-15769000D01*
X14995000Y-15769000D02*
X15004524Y-15721381D01*
X15004524Y-15721381D02*
X15004524Y-15683286D01*
X15004524Y-15683286D02*
X14995000Y-15635667D01*
X14995000Y-15635667D02*
X14985477Y-15607095D01*
X14985477Y-15607095D02*
X14975953Y-15588048D01*
X14975953Y-15588048D02*
X14956905Y-15559476D01*
X14956905Y-15559476D02*
X14947381Y-15549952D01*
D10*
X9980356Y-15985356D02*
X9980356Y-15914644D01*
X9909644Y-15914644D01*
X9909644Y-15985356D01*
X9980356Y-15985356D01*
D11*
X10347381Y-16042524D02*
X10233095Y-16042524D01*
X10290238Y-16042524D02*
X10290238Y-15842524D01*
X10290238Y-15842524D02*
X10271190Y-15871095D01*
X10271190Y-15871095D02*
X10252143Y-15890143D01*
X10252143Y-15890143D02*
X10233095Y-15899667D01*
X10433095Y-16023476D02*
X10442619Y-16033000D01*
X10442619Y-16033000D02*
X10433095Y-16042524D01*
X10433095Y-16042524D02*
X10423571Y-16033000D01*
X10423571Y-16033000D02*
X10433095Y-16023476D01*
X10433095Y-16023476D02*
X10433095Y-16042524D01*
X10566429Y-15842524D02*
X10585476Y-15842524D01*
X10585476Y-15842524D02*
X10604524Y-15852048D01*
X10604524Y-15852048D02*
X10614048Y-15861571D01*
X10614048Y-15861571D02*
X10623571Y-15880619D01*
X10623571Y-15880619D02*
X10633095Y-15918714D01*
X10633095Y-15918714D02*
X10633095Y-15966333D01*
X10633095Y-15966333D02*
X10623571Y-16004428D01*
X10623571Y-16004428D02*
X10614048Y-16023476D01*
X10614048Y-16023476D02*
X10604524Y-16033000D01*
X10604524Y-16033000D02*
X10585476Y-16042524D01*
X10585476Y-16042524D02*
X10566429Y-16042524D01*
X10566429Y-16042524D02*
X10547381Y-16033000D01*
X10547381Y-16033000D02*
X10537857Y-16023476D01*
X10537857Y-16023476D02*
X10528333Y-16004428D01*
X10528333Y-16004428D02*
X10518810Y-15966333D01*
X10518810Y-15966333D02*
X10518810Y-15918714D01*
X10518810Y-15918714D02*
X10528333Y-15880619D01*
X10528333Y-15880619D02*
X10537857Y-15861571D01*
X10537857Y-15861571D02*
X10547381Y-15852048D01*
X10547381Y-15852048D02*
X10566429Y-15842524D01*
X10756905Y-15842524D02*
X10775952Y-15842524D01*
X10775952Y-15842524D02*
X10795000Y-15852048D01*
X10795000Y-15852048D02*
X10804524Y-15861571D01*
X10804524Y-15861571D02*
X10814048Y-15880619D01*
X10814048Y-15880619D02*
X10823571Y-15918714D01*
X10823571Y-15918714D02*
X10823571Y-15966333D01*
X10823571Y-15966333D02*
X10814048Y-16004428D01*
X10814048Y-16004428D02*
X10804524Y-16023476D01*
X10804524Y-16023476D02*
X10795000Y-16033000D01*
X10795000Y-16033000D02*
X10775952Y-16042524D01*
X10775952Y-16042524D02*
X10756905Y-16042524D01*
X10756905Y-16042524D02*
X10737857Y-16033000D01*
X10737857Y-16033000D02*
X10728333Y-16023476D01*
X10728333Y-16023476D02*
X10718810Y-16004428D01*
X10718810Y-16004428D02*
X10709286Y-15966333D01*
X10709286Y-15966333D02*
X10709286Y-15918714D01*
X10709286Y-15918714D02*
X10718810Y-15880619D01*
X10718810Y-15880619D02*
X10728333Y-15861571D01*
X10728333Y-15861571D02*
X10737857Y-15852048D01*
X10737857Y-15852048D02*
X10756905Y-15842524D01*
X10947381Y-15842524D02*
X10966429Y-15842524D01*
X10966429Y-15842524D02*
X10985476Y-15852048D01*
X10985476Y-15852048D02*
X10995000Y-15861571D01*
X10995000Y-15861571D02*
X11004524Y-15880619D01*
X11004524Y-15880619D02*
X11014048Y-15918714D01*
X11014048Y-15918714D02*
X11014048Y-15966333D01*
X11014048Y-15966333D02*
X11004524Y-16004428D01*
X11004524Y-16004428D02*
X10995000Y-16023476D01*
X10995000Y-16023476D02*
X10985476Y-16033000D01*
X10985476Y-16033000D02*
X10966429Y-16042524D01*
X10966429Y-16042524D02*
X10947381Y-16042524D01*
X10947381Y-16042524D02*
X10928333Y-16033000D01*
X10928333Y-16033000D02*
X10918810Y-16023476D01*
X10918810Y-16023476D02*
X10909286Y-16004428D01*
X10909286Y-16004428D02*
X10899762Y-15966333D01*
X10899762Y-15966333D02*
X10899762Y-15918714D01*
X10899762Y-15918714D02*
X10909286Y-15880619D01*
X10909286Y-15880619D02*
X10918810Y-15861571D01*
X10918810Y-15861571D02*
X10928333Y-15852048D01*
X10928333Y-15852048D02*
X10947381Y-15842524D01*
X11099762Y-16042524D02*
X11099762Y-15909190D01*
X11099762Y-15928238D02*
X11109286Y-15918714D01*
X11109286Y-15918714D02*
X11128333Y-15909190D01*
X11128333Y-15909190D02*
X11156905Y-15909190D01*
X11156905Y-15909190D02*
X11175952Y-15918714D01*
X11175952Y-15918714D02*
X11185476Y-15937762D01*
X11185476Y-15937762D02*
X11185476Y-16042524D01*
X11185476Y-15937762D02*
X11195000Y-15918714D01*
X11195000Y-15918714D02*
X11214048Y-15909190D01*
X11214048Y-15909190D02*
X11242619Y-15909190D01*
X11242619Y-15909190D02*
X11261667Y-15918714D01*
X11261667Y-15918714D02*
X11271190Y-15937762D01*
X11271190Y-15937762D02*
X11271190Y-16042524D01*
X11366429Y-16042524D02*
X11366429Y-15909190D01*
X11366429Y-15928238D02*
X11375952Y-15918714D01*
X11375952Y-15918714D02*
X11395000Y-15909190D01*
X11395000Y-15909190D02*
X11423571Y-15909190D01*
X11423571Y-15909190D02*
X11442619Y-15918714D01*
X11442619Y-15918714D02*
X11452143Y-15937762D01*
X11452143Y-15937762D02*
X11452143Y-16042524D01*
X11452143Y-15937762D02*
X11461667Y-15918714D01*
X11461667Y-15918714D02*
X11480714Y-15909190D01*
X11480714Y-15909190D02*
X11509286Y-15909190D01*
X11509286Y-15909190D02*
X11528333Y-15918714D01*
X11528333Y-15918714D02*
X11537857Y-15937762D01*
X11537857Y-15937762D02*
X11537857Y-16042524D01*
X11928333Y-15833000D02*
X11756905Y-16090143D01*
X12185476Y-15842524D02*
X12204524Y-15842524D01*
X12204524Y-15842524D02*
X12223572Y-15852048D01*
X12223572Y-15852048D02*
X12233095Y-15861571D01*
X12233095Y-15861571D02*
X12242619Y-15880619D01*
X12242619Y-15880619D02*
X12252143Y-15918714D01*
X12252143Y-15918714D02*
X12252143Y-15966333D01*
X12252143Y-15966333D02*
X12242619Y-16004428D01*
X12242619Y-16004428D02*
X12233095Y-16023476D01*
X12233095Y-16023476D02*
X12223572Y-16033000D01*
X12223572Y-16033000D02*
X12204524Y-16042524D01*
X12204524Y-16042524D02*
X12185476Y-16042524D01*
X12185476Y-16042524D02*
X12166429Y-16033000D01*
X12166429Y-16033000D02*
X12156905Y-16023476D01*
X12156905Y-16023476D02*
X12147381Y-16004428D01*
X12147381Y-16004428D02*
X12137857Y-15966333D01*
X12137857Y-15966333D02*
X12137857Y-15918714D01*
X12137857Y-15918714D02*
X12147381Y-15880619D01*
X12147381Y-15880619D02*
X12156905Y-15861571D01*
X12156905Y-15861571D02*
X12166429Y-15852048D01*
X12166429Y-15852048D02*
X12185476Y-15842524D01*
X12337857Y-16023476D02*
X12347381Y-16033000D01*
X12347381Y-16033000D02*
X12337857Y-16042524D01*
X12337857Y-16042524D02*
X12328333Y-16033000D01*
X12328333Y-16033000D02*
X12337857Y-16023476D01*
X12337857Y-16023476D02*
X12337857Y-16042524D01*
X12471191Y-15842524D02*
X12490238Y-15842524D01*
X12490238Y-15842524D02*
X12509286Y-15852048D01*
X12509286Y-15852048D02*
X12518810Y-15861571D01*
X12518810Y-15861571D02*
X12528333Y-15880619D01*
X12528333Y-15880619D02*
X12537857Y-15918714D01*
X12537857Y-15918714D02*
X12537857Y-15966333D01*
X12537857Y-15966333D02*
X12528333Y-16004428D01*
X12528333Y-16004428D02*
X12518810Y-16023476D01*
X12518810Y-16023476D02*
X12509286Y-16033000D01*
X12509286Y-16033000D02*
X12490238Y-16042524D01*
X12490238Y-16042524D02*
X12471191Y-16042524D01*
X12471191Y-16042524D02*
X12452143Y-16033000D01*
X12452143Y-16033000D02*
X12442619Y-16023476D01*
X12442619Y-16023476D02*
X12433095Y-16004428D01*
X12433095Y-16004428D02*
X12423572Y-15966333D01*
X12423572Y-15966333D02*
X12423572Y-15918714D01*
X12423572Y-15918714D02*
X12433095Y-15880619D01*
X12433095Y-15880619D02*
X12442619Y-15861571D01*
X12442619Y-15861571D02*
X12452143Y-15852048D01*
X12452143Y-15852048D02*
X12471191Y-15842524D01*
X12604524Y-15842524D02*
X12728333Y-15842524D01*
X12728333Y-15842524D02*
X12661667Y-15918714D01*
X12661667Y-15918714D02*
X12690238Y-15918714D01*
X12690238Y-15918714D02*
X12709286Y-15928238D01*
X12709286Y-15928238D02*
X12718810Y-15937762D01*
X12718810Y-15937762D02*
X12728333Y-15956809D01*
X12728333Y-15956809D02*
X12728333Y-16004428D01*
X12728333Y-16004428D02*
X12718810Y-16023476D01*
X12718810Y-16023476D02*
X12709286Y-16033000D01*
X12709286Y-16033000D02*
X12690238Y-16042524D01*
X12690238Y-16042524D02*
X12633095Y-16042524D01*
X12633095Y-16042524D02*
X12614048Y-16033000D01*
X12614048Y-16033000D02*
X12604524Y-16023476D01*
X12823572Y-16042524D02*
X12861667Y-16042524D01*
X12861667Y-16042524D02*
X12880714Y-16033000D01*
X12880714Y-16033000D02*
X12890238Y-16023476D01*
X12890238Y-16023476D02*
X12909286Y-15994905D01*
X12909286Y-15994905D02*
X12918810Y-15956809D01*
X12918810Y-15956809D02*
X12918810Y-15880619D01*
X12918810Y-15880619D02*
X12909286Y-15861571D01*
X12909286Y-15861571D02*
X12899762Y-15852048D01*
X12899762Y-15852048D02*
X12880714Y-15842524D01*
X12880714Y-15842524D02*
X12842619Y-15842524D01*
X12842619Y-15842524D02*
X12823572Y-15852048D01*
X12823572Y-15852048D02*
X12814048Y-15861571D01*
X12814048Y-15861571D02*
X12804524Y-15880619D01*
X12804524Y-15880619D02*
X12804524Y-15928238D01*
X12804524Y-15928238D02*
X12814048Y-15947286D01*
X12814048Y-15947286D02*
X12823572Y-15956809D01*
X12823572Y-15956809D02*
X12842619Y-15966333D01*
X12842619Y-15966333D02*
X12880714Y-15966333D01*
X12880714Y-15966333D02*
X12899762Y-15956809D01*
X12899762Y-15956809D02*
X12909286Y-15947286D01*
X12909286Y-15947286D02*
X12918810Y-15928238D01*
X13090238Y-15909190D02*
X13090238Y-16042524D01*
X13042619Y-15833000D02*
X12995000Y-15975857D01*
X12995000Y-15975857D02*
X13118810Y-15975857D01*
X13185476Y-15842524D02*
X13185476Y-15880619D01*
X13261667Y-15842524D02*
X13261667Y-15880619D01*
X13556905Y-16118714D02*
X13547381Y-16109190D01*
X13547381Y-16109190D02*
X13528334Y-16080619D01*
X13528334Y-16080619D02*
X13518810Y-16061571D01*
X13518810Y-16061571D02*
X13509286Y-16033000D01*
X13509286Y-16033000D02*
X13499762Y-15985381D01*
X13499762Y-15985381D02*
X13499762Y-15947286D01*
X13499762Y-15947286D02*
X13509286Y-15899667D01*
X13509286Y-15899667D02*
X13518810Y-15871095D01*
X13518810Y-15871095D02*
X13528334Y-15852048D01*
X13528334Y-15852048D02*
X13547381Y-15823476D01*
X13547381Y-15823476D02*
X13556905Y-15813952D01*
X13718810Y-15909190D02*
X13718810Y-16042524D01*
X13671191Y-15833000D02*
X13623572Y-15975857D01*
X13623572Y-15975857D02*
X13747381Y-15975857D01*
X13918810Y-15842524D02*
X13823572Y-15842524D01*
X13823572Y-15842524D02*
X13814048Y-15937762D01*
X13814048Y-15937762D02*
X13823572Y-15928238D01*
X13823572Y-15928238D02*
X13842619Y-15918714D01*
X13842619Y-15918714D02*
X13890238Y-15918714D01*
X13890238Y-15918714D02*
X13909286Y-15928238D01*
X13909286Y-15928238D02*
X13918810Y-15937762D01*
X13918810Y-15937762D02*
X13928334Y-15956809D01*
X13928334Y-15956809D02*
X13928334Y-16004428D01*
X13928334Y-16004428D02*
X13918810Y-16023476D01*
X13918810Y-16023476D02*
X13909286Y-16033000D01*
X13909286Y-16033000D02*
X13890238Y-16042524D01*
X13890238Y-16042524D02*
X13842619Y-16042524D01*
X13842619Y-16042524D02*
X13823572Y-16033000D01*
X13823572Y-16033000D02*
X13814048Y-16023476D01*
X14166429Y-16042524D02*
X14166429Y-15842524D01*
X14252143Y-16042524D02*
X14252143Y-15937762D01*
X14252143Y-15937762D02*
X14242619Y-15918714D01*
X14242619Y-15918714D02*
X14223572Y-15909190D01*
X14223572Y-15909190D02*
X14195000Y-15909190D01*
X14195000Y-15909190D02*
X14175953Y-15918714D01*
X14175953Y-15918714D02*
X14166429Y-15928238D01*
X14375953Y-16042524D02*
X14356905Y-16033000D01*
X14356905Y-16033000D02*
X14347381Y-16023476D01*
X14347381Y-16023476D02*
X14337857Y-16004428D01*
X14337857Y-16004428D02*
X14337857Y-15947286D01*
X14337857Y-15947286D02*
X14347381Y-15928238D01*
X14347381Y-15928238D02*
X14356905Y-15918714D01*
X14356905Y-15918714D02*
X14375953Y-15909190D01*
X14375953Y-15909190D02*
X14404524Y-15909190D01*
X14404524Y-15909190D02*
X14423572Y-15918714D01*
X14423572Y-15918714D02*
X14433096Y-15928238D01*
X14433096Y-15928238D02*
X14442619Y-15947286D01*
X14442619Y-15947286D02*
X14442619Y-16004428D01*
X14442619Y-16004428D02*
X14433096Y-16023476D01*
X14433096Y-16023476D02*
X14423572Y-16033000D01*
X14423572Y-16033000D02*
X14404524Y-16042524D01*
X14404524Y-16042524D02*
X14375953Y-16042524D01*
X14556905Y-16042524D02*
X14537857Y-16033000D01*
X14537857Y-16033000D02*
X14528334Y-16013952D01*
X14528334Y-16013952D02*
X14528334Y-15842524D01*
X14709286Y-16033000D02*
X14690238Y-16042524D01*
X14690238Y-16042524D02*
X14652143Y-16042524D01*
X14652143Y-16042524D02*
X14633096Y-16033000D01*
X14633096Y-16033000D02*
X14623572Y-16013952D01*
X14623572Y-16013952D02*
X14623572Y-15937762D01*
X14623572Y-15937762D02*
X14633096Y-15918714D01*
X14633096Y-15918714D02*
X14652143Y-15909190D01*
X14652143Y-15909190D02*
X14690238Y-15909190D01*
X14690238Y-15909190D02*
X14709286Y-15918714D01*
X14709286Y-15918714D02*
X14718810Y-15937762D01*
X14718810Y-15937762D02*
X14718810Y-15956809D01*
X14718810Y-15956809D02*
X14623572Y-15975857D01*
X14795000Y-16033000D02*
X14814048Y-16042524D01*
X14814048Y-16042524D02*
X14852143Y-16042524D01*
X14852143Y-16042524D02*
X14871191Y-16033000D01*
X14871191Y-16033000D02*
X14880715Y-16013952D01*
X14880715Y-16013952D02*
X14880715Y-16004428D01*
X14880715Y-16004428D02*
X14871191Y-15985381D01*
X14871191Y-15985381D02*
X14852143Y-15975857D01*
X14852143Y-15975857D02*
X14823572Y-15975857D01*
X14823572Y-15975857D02*
X14804524Y-15966333D01*
X14804524Y-15966333D02*
X14795000Y-15947286D01*
X14795000Y-15947286D02*
X14795000Y-15937762D01*
X14795000Y-15937762D02*
X14804524Y-15918714D01*
X14804524Y-15918714D02*
X14823572Y-15909190D01*
X14823572Y-15909190D02*
X14852143Y-15909190D01*
X14852143Y-15909190D02*
X14871191Y-15918714D01*
X14947381Y-16118714D02*
X14956905Y-16109190D01*
X14956905Y-16109190D02*
X14975953Y-16080619D01*
X14975953Y-16080619D02*
X14985477Y-16061571D01*
X14985477Y-16061571D02*
X14995000Y-16033000D01*
X14995000Y-16033000D02*
X15004524Y-15985381D01*
X15004524Y-15985381D02*
X15004524Y-15947286D01*
X15004524Y-15947286D02*
X14995000Y-15899667D01*
X14995000Y-15899667D02*
X14985477Y-15871095D01*
X14985477Y-15871095D02*
X14975953Y-15852048D01*
X14975953Y-15852048D02*
X14956905Y-15823476D01*
X14956905Y-15823476D02*
X14947381Y-15813952D01*
D15*
X9940000Y-16269000D02*
X9995000Y-16214000D01*
X9940000Y-16159000D01*
X9885000Y-16214000D01*
X9940000Y-16269000D01*
D11*
X10347381Y-16306524D02*
X10233095Y-16306524D01*
X10290238Y-16306524D02*
X10290238Y-16106524D01*
X10290238Y-16106524D02*
X10271190Y-16135095D01*
X10271190Y-16135095D02*
X10252143Y-16154143D01*
X10252143Y-16154143D02*
X10233095Y-16163667D01*
X10433095Y-16287476D02*
X10442619Y-16297000D01*
X10442619Y-16297000D02*
X10433095Y-16306524D01*
X10433095Y-16306524D02*
X10423571Y-16297000D01*
X10423571Y-16297000D02*
X10433095Y-16287476D01*
X10433095Y-16287476D02*
X10433095Y-16306524D01*
X10633095Y-16306524D02*
X10518810Y-16306524D01*
X10575952Y-16306524D02*
X10575952Y-16106524D01*
X10575952Y-16106524D02*
X10556905Y-16135095D01*
X10556905Y-16135095D02*
X10537857Y-16154143D01*
X10537857Y-16154143D02*
X10518810Y-16163667D01*
X10756905Y-16106524D02*
X10775952Y-16106524D01*
X10775952Y-16106524D02*
X10795000Y-16116048D01*
X10795000Y-16116048D02*
X10804524Y-16125571D01*
X10804524Y-16125571D02*
X10814048Y-16144619D01*
X10814048Y-16144619D02*
X10823571Y-16182714D01*
X10823571Y-16182714D02*
X10823571Y-16230333D01*
X10823571Y-16230333D02*
X10814048Y-16268428D01*
X10814048Y-16268428D02*
X10804524Y-16287476D01*
X10804524Y-16287476D02*
X10795000Y-16297000D01*
X10795000Y-16297000D02*
X10775952Y-16306524D01*
X10775952Y-16306524D02*
X10756905Y-16306524D01*
X10756905Y-16306524D02*
X10737857Y-16297000D01*
X10737857Y-16297000D02*
X10728333Y-16287476D01*
X10728333Y-16287476D02*
X10718810Y-16268428D01*
X10718810Y-16268428D02*
X10709286Y-16230333D01*
X10709286Y-16230333D02*
X10709286Y-16182714D01*
X10709286Y-16182714D02*
X10718810Y-16144619D01*
X10718810Y-16144619D02*
X10728333Y-16125571D01*
X10728333Y-16125571D02*
X10737857Y-16116048D01*
X10737857Y-16116048D02*
X10756905Y-16106524D01*
X10947381Y-16106524D02*
X10966429Y-16106524D01*
X10966429Y-16106524D02*
X10985476Y-16116048D01*
X10985476Y-16116048D02*
X10995000Y-16125571D01*
X10995000Y-16125571D02*
X11004524Y-16144619D01*
X11004524Y-16144619D02*
X11014048Y-16182714D01*
X11014048Y-16182714D02*
X11014048Y-16230333D01*
X11014048Y-16230333D02*
X11004524Y-16268428D01*
X11004524Y-16268428D02*
X10995000Y-16287476D01*
X10995000Y-16287476D02*
X10985476Y-16297000D01*
X10985476Y-16297000D02*
X10966429Y-16306524D01*
X10966429Y-16306524D02*
X10947381Y-16306524D01*
X10947381Y-16306524D02*
X10928333Y-16297000D01*
X10928333Y-16297000D02*
X10918810Y-16287476D01*
X10918810Y-16287476D02*
X10909286Y-16268428D01*
X10909286Y-16268428D02*
X10899762Y-16230333D01*
X10899762Y-16230333D02*
X10899762Y-16182714D01*
X10899762Y-16182714D02*
X10909286Y-16144619D01*
X10909286Y-16144619D02*
X10918810Y-16125571D01*
X10918810Y-16125571D02*
X10928333Y-16116048D01*
X10928333Y-16116048D02*
X10947381Y-16106524D01*
X11099762Y-16306524D02*
X11099762Y-16173190D01*
X11099762Y-16192238D02*
X11109286Y-16182714D01*
X11109286Y-16182714D02*
X11128333Y-16173190D01*
X11128333Y-16173190D02*
X11156905Y-16173190D01*
X11156905Y-16173190D02*
X11175952Y-16182714D01*
X11175952Y-16182714D02*
X11185476Y-16201762D01*
X11185476Y-16201762D02*
X11185476Y-16306524D01*
X11185476Y-16201762D02*
X11195000Y-16182714D01*
X11195000Y-16182714D02*
X11214048Y-16173190D01*
X11214048Y-16173190D02*
X11242619Y-16173190D01*
X11242619Y-16173190D02*
X11261667Y-16182714D01*
X11261667Y-16182714D02*
X11271190Y-16201762D01*
X11271190Y-16201762D02*
X11271190Y-16306524D01*
X11366429Y-16306524D02*
X11366429Y-16173190D01*
X11366429Y-16192238D02*
X11375952Y-16182714D01*
X11375952Y-16182714D02*
X11395000Y-16173190D01*
X11395000Y-16173190D02*
X11423571Y-16173190D01*
X11423571Y-16173190D02*
X11442619Y-16182714D01*
X11442619Y-16182714D02*
X11452143Y-16201762D01*
X11452143Y-16201762D02*
X11452143Y-16306524D01*
X11452143Y-16201762D02*
X11461667Y-16182714D01*
X11461667Y-16182714D02*
X11480714Y-16173190D01*
X11480714Y-16173190D02*
X11509286Y-16173190D01*
X11509286Y-16173190D02*
X11528333Y-16182714D01*
X11528333Y-16182714D02*
X11537857Y-16201762D01*
X11537857Y-16201762D02*
X11537857Y-16306524D01*
X11928333Y-16097000D02*
X11756905Y-16354143D01*
X12185476Y-16106524D02*
X12204524Y-16106524D01*
X12204524Y-16106524D02*
X12223572Y-16116048D01*
X12223572Y-16116048D02*
X12233095Y-16125571D01*
X12233095Y-16125571D02*
X12242619Y-16144619D01*
X12242619Y-16144619D02*
X12252143Y-16182714D01*
X12252143Y-16182714D02*
X12252143Y-16230333D01*
X12252143Y-16230333D02*
X12242619Y-16268428D01*
X12242619Y-16268428D02*
X12233095Y-16287476D01*
X12233095Y-16287476D02*
X12223572Y-16297000D01*
X12223572Y-16297000D02*
X12204524Y-16306524D01*
X12204524Y-16306524D02*
X12185476Y-16306524D01*
X12185476Y-16306524D02*
X12166429Y-16297000D01*
X12166429Y-16297000D02*
X12156905Y-16287476D01*
X12156905Y-16287476D02*
X12147381Y-16268428D01*
X12147381Y-16268428D02*
X12137857Y-16230333D01*
X12137857Y-16230333D02*
X12137857Y-16182714D01*
X12137857Y-16182714D02*
X12147381Y-16144619D01*
X12147381Y-16144619D02*
X12156905Y-16125571D01*
X12156905Y-16125571D02*
X12166429Y-16116048D01*
X12166429Y-16116048D02*
X12185476Y-16106524D01*
X12337857Y-16287476D02*
X12347381Y-16297000D01*
X12347381Y-16297000D02*
X12337857Y-16306524D01*
X12337857Y-16306524D02*
X12328333Y-16297000D01*
X12328333Y-16297000D02*
X12337857Y-16287476D01*
X12337857Y-16287476D02*
X12337857Y-16306524D01*
X12471191Y-16106524D02*
X12490238Y-16106524D01*
X12490238Y-16106524D02*
X12509286Y-16116048D01*
X12509286Y-16116048D02*
X12518810Y-16125571D01*
X12518810Y-16125571D02*
X12528333Y-16144619D01*
X12528333Y-16144619D02*
X12537857Y-16182714D01*
X12537857Y-16182714D02*
X12537857Y-16230333D01*
X12537857Y-16230333D02*
X12528333Y-16268428D01*
X12528333Y-16268428D02*
X12518810Y-16287476D01*
X12518810Y-16287476D02*
X12509286Y-16297000D01*
X12509286Y-16297000D02*
X12490238Y-16306524D01*
X12490238Y-16306524D02*
X12471191Y-16306524D01*
X12471191Y-16306524D02*
X12452143Y-16297000D01*
X12452143Y-16297000D02*
X12442619Y-16287476D01*
X12442619Y-16287476D02*
X12433095Y-16268428D01*
X12433095Y-16268428D02*
X12423572Y-16230333D01*
X12423572Y-16230333D02*
X12423572Y-16182714D01*
X12423572Y-16182714D02*
X12433095Y-16144619D01*
X12433095Y-16144619D02*
X12442619Y-16125571D01*
X12442619Y-16125571D02*
X12452143Y-16116048D01*
X12452143Y-16116048D02*
X12471191Y-16106524D01*
X12709286Y-16173190D02*
X12709286Y-16306524D01*
X12661667Y-16097000D02*
X12614048Y-16239857D01*
X12614048Y-16239857D02*
X12737857Y-16239857D01*
X12795000Y-16106524D02*
X12918810Y-16106524D01*
X12918810Y-16106524D02*
X12852143Y-16182714D01*
X12852143Y-16182714D02*
X12880714Y-16182714D01*
X12880714Y-16182714D02*
X12899762Y-16192238D01*
X12899762Y-16192238D02*
X12909286Y-16201762D01*
X12909286Y-16201762D02*
X12918810Y-16220809D01*
X12918810Y-16220809D02*
X12918810Y-16268428D01*
X12918810Y-16268428D02*
X12909286Y-16287476D01*
X12909286Y-16287476D02*
X12899762Y-16297000D01*
X12899762Y-16297000D02*
X12880714Y-16306524D01*
X12880714Y-16306524D02*
X12823572Y-16306524D01*
X12823572Y-16306524D02*
X12804524Y-16297000D01*
X12804524Y-16297000D02*
X12795000Y-16287476D01*
X12985476Y-16106524D02*
X13109286Y-16106524D01*
X13109286Y-16106524D02*
X13042619Y-16182714D01*
X13042619Y-16182714D02*
X13071191Y-16182714D01*
X13071191Y-16182714D02*
X13090238Y-16192238D01*
X13090238Y-16192238D02*
X13099762Y-16201762D01*
X13099762Y-16201762D02*
X13109286Y-16220809D01*
X13109286Y-16220809D02*
X13109286Y-16268428D01*
X13109286Y-16268428D02*
X13099762Y-16287476D01*
X13099762Y-16287476D02*
X13090238Y-16297000D01*
X13090238Y-16297000D02*
X13071191Y-16306524D01*
X13071191Y-16306524D02*
X13014048Y-16306524D01*
X13014048Y-16306524D02*
X12995000Y-16297000D01*
X12995000Y-16297000D02*
X12985476Y-16287476D01*
X13185476Y-16106524D02*
X13185476Y-16144619D01*
X13261667Y-16106524D02*
X13261667Y-16144619D01*
X13556905Y-16382714D02*
X13547381Y-16373190D01*
X13547381Y-16373190D02*
X13528334Y-16344619D01*
X13528334Y-16344619D02*
X13518810Y-16325571D01*
X13518810Y-16325571D02*
X13509286Y-16297000D01*
X13509286Y-16297000D02*
X13499762Y-16249381D01*
X13499762Y-16249381D02*
X13499762Y-16211286D01*
X13499762Y-16211286D02*
X13509286Y-16163667D01*
X13509286Y-16163667D02*
X13518810Y-16135095D01*
X13518810Y-16135095D02*
X13528334Y-16116048D01*
X13528334Y-16116048D02*
X13547381Y-16087476D01*
X13547381Y-16087476D02*
X13556905Y-16077952D01*
X13642619Y-16306524D02*
X13680714Y-16306524D01*
X13680714Y-16306524D02*
X13699762Y-16297000D01*
X13699762Y-16297000D02*
X13709286Y-16287476D01*
X13709286Y-16287476D02*
X13728334Y-16258905D01*
X13728334Y-16258905D02*
X13737857Y-16220809D01*
X13737857Y-16220809D02*
X13737857Y-16144619D01*
X13737857Y-16144619D02*
X13728334Y-16125571D01*
X13728334Y-16125571D02*
X13718810Y-16116048D01*
X13718810Y-16116048D02*
X13699762Y-16106524D01*
X13699762Y-16106524D02*
X13661667Y-16106524D01*
X13661667Y-16106524D02*
X13642619Y-16116048D01*
X13642619Y-16116048D02*
X13633095Y-16125571D01*
X13633095Y-16125571D02*
X13623572Y-16144619D01*
X13623572Y-16144619D02*
X13623572Y-16192238D01*
X13623572Y-16192238D02*
X13633095Y-16211286D01*
X13633095Y-16211286D02*
X13642619Y-16220809D01*
X13642619Y-16220809D02*
X13661667Y-16230333D01*
X13661667Y-16230333D02*
X13699762Y-16230333D01*
X13699762Y-16230333D02*
X13718810Y-16220809D01*
X13718810Y-16220809D02*
X13728334Y-16211286D01*
X13728334Y-16211286D02*
X13737857Y-16192238D01*
X13975953Y-16306524D02*
X13975953Y-16106524D01*
X14061667Y-16306524D02*
X14061667Y-16201762D01*
X14061667Y-16201762D02*
X14052143Y-16182714D01*
X14052143Y-16182714D02*
X14033096Y-16173190D01*
X14033096Y-16173190D02*
X14004524Y-16173190D01*
X14004524Y-16173190D02*
X13985476Y-16182714D01*
X13985476Y-16182714D02*
X13975953Y-16192238D01*
X14185476Y-16306524D02*
X14166429Y-16297000D01*
X14166429Y-16297000D02*
X14156905Y-16287476D01*
X14156905Y-16287476D02*
X14147381Y-16268428D01*
X14147381Y-16268428D02*
X14147381Y-16211286D01*
X14147381Y-16211286D02*
X14156905Y-16192238D01*
X14156905Y-16192238D02*
X14166429Y-16182714D01*
X14166429Y-16182714D02*
X14185476Y-16173190D01*
X14185476Y-16173190D02*
X14214048Y-16173190D01*
X14214048Y-16173190D02*
X14233096Y-16182714D01*
X14233096Y-16182714D02*
X14242619Y-16192238D01*
X14242619Y-16192238D02*
X14252143Y-16211286D01*
X14252143Y-16211286D02*
X14252143Y-16268428D01*
X14252143Y-16268428D02*
X14242619Y-16287476D01*
X14242619Y-16287476D02*
X14233096Y-16297000D01*
X14233096Y-16297000D02*
X14214048Y-16306524D01*
X14214048Y-16306524D02*
X14185476Y-16306524D01*
X14366429Y-16306524D02*
X14347381Y-16297000D01*
X14347381Y-16297000D02*
X14337857Y-16277952D01*
X14337857Y-16277952D02*
X14337857Y-16106524D01*
X14518810Y-16297000D02*
X14499762Y-16306524D01*
X14499762Y-16306524D02*
X14461667Y-16306524D01*
X14461667Y-16306524D02*
X14442619Y-16297000D01*
X14442619Y-16297000D02*
X14433096Y-16277952D01*
X14433096Y-16277952D02*
X14433096Y-16201762D01*
X14433096Y-16201762D02*
X14442619Y-16182714D01*
X14442619Y-16182714D02*
X14461667Y-16173190D01*
X14461667Y-16173190D02*
X14499762Y-16173190D01*
X14499762Y-16173190D02*
X14518810Y-16182714D01*
X14518810Y-16182714D02*
X14528334Y-16201762D01*
X14528334Y-16201762D02*
X14528334Y-16220809D01*
X14528334Y-16220809D02*
X14433096Y-16239857D01*
X14604524Y-16297000D02*
X14623572Y-16306524D01*
X14623572Y-16306524D02*
X14661667Y-16306524D01*
X14661667Y-16306524D02*
X14680715Y-16297000D01*
X14680715Y-16297000D02*
X14690238Y-16277952D01*
X14690238Y-16277952D02*
X14690238Y-16268428D01*
X14690238Y-16268428D02*
X14680715Y-16249381D01*
X14680715Y-16249381D02*
X14661667Y-16239857D01*
X14661667Y-16239857D02*
X14633096Y-16239857D01*
X14633096Y-16239857D02*
X14614048Y-16230333D01*
X14614048Y-16230333D02*
X14604524Y-16211286D01*
X14604524Y-16211286D02*
X14604524Y-16201762D01*
X14604524Y-16201762D02*
X14614048Y-16182714D01*
X14614048Y-16182714D02*
X14633096Y-16173190D01*
X14633096Y-16173190D02*
X14661667Y-16173190D01*
X14661667Y-16173190D02*
X14680715Y-16182714D01*
X14756905Y-16382714D02*
X14766429Y-16373190D01*
X14766429Y-16373190D02*
X14785477Y-16344619D01*
X14785477Y-16344619D02*
X14795000Y-16325571D01*
X14795000Y-16325571D02*
X14804524Y-16297000D01*
X14804524Y-16297000D02*
X14814048Y-16249381D01*
X14814048Y-16249381D02*
X14814048Y-16211286D01*
X14814048Y-16211286D02*
X14804524Y-16163667D01*
X14804524Y-16163667D02*
X14795000Y-16135095D01*
X14795000Y-16135095D02*
X14785477Y-16116048D01*
X14785477Y-16116048D02*
X14766429Y-16087476D01*
X14766429Y-16087476D02*
X14756905Y-16077952D01*
X9795000Y-16378000D02*
X9995000Y-16578000D01*
X9995000Y-16378000D02*
X9795000Y-16578000D01*
X9995000Y-16478000D02*
G75*
G03*
X9995000Y-16478000I-100000J0D01*
G01*
X10328333Y-16370524D02*
X10290238Y-16370524D01*
X10290238Y-16370524D02*
X10271190Y-16380048D01*
X10271190Y-16380048D02*
X10261667Y-16389571D01*
X10261667Y-16389571D02*
X10242619Y-16418143D01*
X10242619Y-16418143D02*
X10233095Y-16456238D01*
X10233095Y-16456238D02*
X10233095Y-16532428D01*
X10233095Y-16532428D02*
X10242619Y-16551476D01*
X10242619Y-16551476D02*
X10252143Y-16561000D01*
X10252143Y-16561000D02*
X10271190Y-16570524D01*
X10271190Y-16570524D02*
X10309286Y-16570524D01*
X10309286Y-16570524D02*
X10328333Y-16561000D01*
X10328333Y-16561000D02*
X10337857Y-16551476D01*
X10337857Y-16551476D02*
X10347381Y-16532428D01*
X10347381Y-16532428D02*
X10347381Y-16484809D01*
X10347381Y-16484809D02*
X10337857Y-16465762D01*
X10337857Y-16465762D02*
X10328333Y-16456238D01*
X10328333Y-16456238D02*
X10309286Y-16446714D01*
X10309286Y-16446714D02*
X10271190Y-16446714D01*
X10271190Y-16446714D02*
X10252143Y-16456238D01*
X10252143Y-16456238D02*
X10242619Y-16465762D01*
X10242619Y-16465762D02*
X10233095Y-16484809D01*
X10433095Y-16551476D02*
X10442619Y-16561000D01*
X10442619Y-16561000D02*
X10433095Y-16570524D01*
X10433095Y-16570524D02*
X10423571Y-16561000D01*
X10423571Y-16561000D02*
X10433095Y-16551476D01*
X10433095Y-16551476D02*
X10433095Y-16570524D01*
X10633095Y-16570524D02*
X10518810Y-16570524D01*
X10575952Y-16570524D02*
X10575952Y-16370524D01*
X10575952Y-16370524D02*
X10556905Y-16399095D01*
X10556905Y-16399095D02*
X10537857Y-16418143D01*
X10537857Y-16418143D02*
X10518810Y-16427667D01*
X10756905Y-16370524D02*
X10775952Y-16370524D01*
X10775952Y-16370524D02*
X10795000Y-16380048D01*
X10795000Y-16380048D02*
X10804524Y-16389571D01*
X10804524Y-16389571D02*
X10814048Y-16408619D01*
X10814048Y-16408619D02*
X10823571Y-16446714D01*
X10823571Y-16446714D02*
X10823571Y-16494333D01*
X10823571Y-16494333D02*
X10814048Y-16532428D01*
X10814048Y-16532428D02*
X10804524Y-16551476D01*
X10804524Y-16551476D02*
X10795000Y-16561000D01*
X10795000Y-16561000D02*
X10775952Y-16570524D01*
X10775952Y-16570524D02*
X10756905Y-16570524D01*
X10756905Y-16570524D02*
X10737857Y-16561000D01*
X10737857Y-16561000D02*
X10728333Y-16551476D01*
X10728333Y-16551476D02*
X10718810Y-16532428D01*
X10718810Y-16532428D02*
X10709286Y-16494333D01*
X10709286Y-16494333D02*
X10709286Y-16446714D01*
X10709286Y-16446714D02*
X10718810Y-16408619D01*
X10718810Y-16408619D02*
X10728333Y-16389571D01*
X10728333Y-16389571D02*
X10737857Y-16380048D01*
X10737857Y-16380048D02*
X10756905Y-16370524D01*
X10947381Y-16370524D02*
X10966429Y-16370524D01*
X10966429Y-16370524D02*
X10985476Y-16380048D01*
X10985476Y-16380048D02*
X10995000Y-16389571D01*
X10995000Y-16389571D02*
X11004524Y-16408619D01*
X11004524Y-16408619D02*
X11014048Y-16446714D01*
X11014048Y-16446714D02*
X11014048Y-16494333D01*
X11014048Y-16494333D02*
X11004524Y-16532428D01*
X11004524Y-16532428D02*
X10995000Y-16551476D01*
X10995000Y-16551476D02*
X10985476Y-16561000D01*
X10985476Y-16561000D02*
X10966429Y-16570524D01*
X10966429Y-16570524D02*
X10947381Y-16570524D01*
X10947381Y-16570524D02*
X10928333Y-16561000D01*
X10928333Y-16561000D02*
X10918810Y-16551476D01*
X10918810Y-16551476D02*
X10909286Y-16532428D01*
X10909286Y-16532428D02*
X10899762Y-16494333D01*
X10899762Y-16494333D02*
X10899762Y-16446714D01*
X10899762Y-16446714D02*
X10909286Y-16408619D01*
X10909286Y-16408619D02*
X10918810Y-16389571D01*
X10918810Y-16389571D02*
X10928333Y-16380048D01*
X10928333Y-16380048D02*
X10947381Y-16370524D01*
X11099762Y-16570524D02*
X11099762Y-16437190D01*
X11099762Y-16456238D02*
X11109286Y-16446714D01*
X11109286Y-16446714D02*
X11128333Y-16437190D01*
X11128333Y-16437190D02*
X11156905Y-16437190D01*
X11156905Y-16437190D02*
X11175952Y-16446714D01*
X11175952Y-16446714D02*
X11185476Y-16465762D01*
X11185476Y-16465762D02*
X11185476Y-16570524D01*
X11185476Y-16465762D02*
X11195000Y-16446714D01*
X11195000Y-16446714D02*
X11214048Y-16437190D01*
X11214048Y-16437190D02*
X11242619Y-16437190D01*
X11242619Y-16437190D02*
X11261667Y-16446714D01*
X11261667Y-16446714D02*
X11271190Y-16465762D01*
X11271190Y-16465762D02*
X11271190Y-16570524D01*
X11366429Y-16570524D02*
X11366429Y-16437190D01*
X11366429Y-16456238D02*
X11375952Y-16446714D01*
X11375952Y-16446714D02*
X11395000Y-16437190D01*
X11395000Y-16437190D02*
X11423571Y-16437190D01*
X11423571Y-16437190D02*
X11442619Y-16446714D01*
X11442619Y-16446714D02*
X11452143Y-16465762D01*
X11452143Y-16465762D02*
X11452143Y-16570524D01*
X11452143Y-16465762D02*
X11461667Y-16446714D01*
X11461667Y-16446714D02*
X11480714Y-16437190D01*
X11480714Y-16437190D02*
X11509286Y-16437190D01*
X11509286Y-16437190D02*
X11528333Y-16446714D01*
X11528333Y-16446714D02*
X11537857Y-16465762D01*
X11537857Y-16465762D02*
X11537857Y-16570524D01*
X11928333Y-16361000D02*
X11756905Y-16618143D01*
X12185476Y-16370524D02*
X12204524Y-16370524D01*
X12204524Y-16370524D02*
X12223572Y-16380048D01*
X12223572Y-16380048D02*
X12233095Y-16389571D01*
X12233095Y-16389571D02*
X12242619Y-16408619D01*
X12242619Y-16408619D02*
X12252143Y-16446714D01*
X12252143Y-16446714D02*
X12252143Y-16494333D01*
X12252143Y-16494333D02*
X12242619Y-16532428D01*
X12242619Y-16532428D02*
X12233095Y-16551476D01*
X12233095Y-16551476D02*
X12223572Y-16561000D01*
X12223572Y-16561000D02*
X12204524Y-16570524D01*
X12204524Y-16570524D02*
X12185476Y-16570524D01*
X12185476Y-16570524D02*
X12166429Y-16561000D01*
X12166429Y-16561000D02*
X12156905Y-16551476D01*
X12156905Y-16551476D02*
X12147381Y-16532428D01*
X12147381Y-16532428D02*
X12137857Y-16494333D01*
X12137857Y-16494333D02*
X12137857Y-16446714D01*
X12137857Y-16446714D02*
X12147381Y-16408619D01*
X12147381Y-16408619D02*
X12156905Y-16389571D01*
X12156905Y-16389571D02*
X12166429Y-16380048D01*
X12166429Y-16380048D02*
X12185476Y-16370524D01*
X12337857Y-16551476D02*
X12347381Y-16561000D01*
X12347381Y-16561000D02*
X12337857Y-16570524D01*
X12337857Y-16570524D02*
X12328333Y-16561000D01*
X12328333Y-16561000D02*
X12337857Y-16551476D01*
X12337857Y-16551476D02*
X12337857Y-16570524D01*
X12423572Y-16389571D02*
X12433095Y-16380048D01*
X12433095Y-16380048D02*
X12452143Y-16370524D01*
X12452143Y-16370524D02*
X12499762Y-16370524D01*
X12499762Y-16370524D02*
X12518810Y-16380048D01*
X12518810Y-16380048D02*
X12528333Y-16389571D01*
X12528333Y-16389571D02*
X12537857Y-16408619D01*
X12537857Y-16408619D02*
X12537857Y-16427667D01*
X12537857Y-16427667D02*
X12528333Y-16456238D01*
X12528333Y-16456238D02*
X12414048Y-16570524D01*
X12414048Y-16570524D02*
X12537857Y-16570524D01*
X12709286Y-16437190D02*
X12709286Y-16570524D01*
X12661667Y-16361000D02*
X12614048Y-16503857D01*
X12614048Y-16503857D02*
X12737857Y-16503857D01*
X12852143Y-16370524D02*
X12871191Y-16370524D01*
X12871191Y-16370524D02*
X12890238Y-16380048D01*
X12890238Y-16380048D02*
X12899762Y-16389571D01*
X12899762Y-16389571D02*
X12909286Y-16408619D01*
X12909286Y-16408619D02*
X12918810Y-16446714D01*
X12918810Y-16446714D02*
X12918810Y-16494333D01*
X12918810Y-16494333D02*
X12909286Y-16532428D01*
X12909286Y-16532428D02*
X12899762Y-16551476D01*
X12899762Y-16551476D02*
X12890238Y-16561000D01*
X12890238Y-16561000D02*
X12871191Y-16570524D01*
X12871191Y-16570524D02*
X12852143Y-16570524D01*
X12852143Y-16570524D02*
X12833095Y-16561000D01*
X12833095Y-16561000D02*
X12823572Y-16551476D01*
X12823572Y-16551476D02*
X12814048Y-16532428D01*
X12814048Y-16532428D02*
X12804524Y-16494333D01*
X12804524Y-16494333D02*
X12804524Y-16446714D01*
X12804524Y-16446714D02*
X12814048Y-16408619D01*
X12814048Y-16408619D02*
X12823572Y-16389571D01*
X12823572Y-16389571D02*
X12833095Y-16380048D01*
X12833095Y-16380048D02*
X12852143Y-16370524D01*
X12995000Y-16389571D02*
X13004524Y-16380048D01*
X13004524Y-16380048D02*
X13023572Y-16370524D01*
X13023572Y-16370524D02*
X13071191Y-16370524D01*
X13071191Y-16370524D02*
X13090238Y-16380048D01*
X13090238Y-16380048D02*
X13099762Y-16389571D01*
X13099762Y-16389571D02*
X13109286Y-16408619D01*
X13109286Y-16408619D02*
X13109286Y-16427667D01*
X13109286Y-16427667D02*
X13099762Y-16456238D01*
X13099762Y-16456238D02*
X12985476Y-16570524D01*
X12985476Y-16570524D02*
X13109286Y-16570524D01*
X13185476Y-16370524D02*
X13185476Y-16408619D01*
X13261667Y-16370524D02*
X13261667Y-16408619D01*
X13556905Y-16646714D02*
X13547381Y-16637190D01*
X13547381Y-16637190D02*
X13528334Y-16608619D01*
X13528334Y-16608619D02*
X13518810Y-16589571D01*
X13518810Y-16589571D02*
X13509286Y-16561000D01*
X13509286Y-16561000D02*
X13499762Y-16513381D01*
X13499762Y-16513381D02*
X13499762Y-16475286D01*
X13499762Y-16475286D02*
X13509286Y-16427667D01*
X13509286Y-16427667D02*
X13518810Y-16399095D01*
X13518810Y-16399095D02*
X13528334Y-16380048D01*
X13528334Y-16380048D02*
X13547381Y-16351476D01*
X13547381Y-16351476D02*
X13556905Y-16341952D01*
X13623572Y-16389571D02*
X13633095Y-16380048D01*
X13633095Y-16380048D02*
X13652143Y-16370524D01*
X13652143Y-16370524D02*
X13699762Y-16370524D01*
X13699762Y-16370524D02*
X13718810Y-16380048D01*
X13718810Y-16380048D02*
X13728334Y-16389571D01*
X13728334Y-16389571D02*
X13737857Y-16408619D01*
X13737857Y-16408619D02*
X13737857Y-16427667D01*
X13737857Y-16427667D02*
X13728334Y-16456238D01*
X13728334Y-16456238D02*
X13614048Y-16570524D01*
X13614048Y-16570524D02*
X13737857Y-16570524D01*
X13975953Y-16570524D02*
X13975953Y-16370524D01*
X14061667Y-16570524D02*
X14061667Y-16465762D01*
X14061667Y-16465762D02*
X14052143Y-16446714D01*
X14052143Y-16446714D02*
X14033096Y-16437190D01*
X14033096Y-16437190D02*
X14004524Y-16437190D01*
X14004524Y-16437190D02*
X13985476Y-16446714D01*
X13985476Y-16446714D02*
X13975953Y-16456238D01*
X14185476Y-16570524D02*
X14166429Y-16561000D01*
X14166429Y-16561000D02*
X14156905Y-16551476D01*
X14156905Y-16551476D02*
X14147381Y-16532428D01*
X14147381Y-16532428D02*
X14147381Y-16475286D01*
X14147381Y-16475286D02*
X14156905Y-16456238D01*
X14156905Y-16456238D02*
X14166429Y-16446714D01*
X14166429Y-16446714D02*
X14185476Y-16437190D01*
X14185476Y-16437190D02*
X14214048Y-16437190D01*
X14214048Y-16437190D02*
X14233096Y-16446714D01*
X14233096Y-16446714D02*
X14242619Y-16456238D01*
X14242619Y-16456238D02*
X14252143Y-16475286D01*
X14252143Y-16475286D02*
X14252143Y-16532428D01*
X14252143Y-16532428D02*
X14242619Y-16551476D01*
X14242619Y-16551476D02*
X14233096Y-16561000D01*
X14233096Y-16561000D02*
X14214048Y-16570524D01*
X14214048Y-16570524D02*
X14185476Y-16570524D01*
X14366429Y-16570524D02*
X14347381Y-16561000D01*
X14347381Y-16561000D02*
X14337857Y-16541952D01*
X14337857Y-16541952D02*
X14337857Y-16370524D01*
X14518810Y-16561000D02*
X14499762Y-16570524D01*
X14499762Y-16570524D02*
X14461667Y-16570524D01*
X14461667Y-16570524D02*
X14442619Y-16561000D01*
X14442619Y-16561000D02*
X14433096Y-16541952D01*
X14433096Y-16541952D02*
X14433096Y-16465762D01*
X14433096Y-16465762D02*
X14442619Y-16446714D01*
X14442619Y-16446714D02*
X14461667Y-16437190D01*
X14461667Y-16437190D02*
X14499762Y-16437190D01*
X14499762Y-16437190D02*
X14518810Y-16446714D01*
X14518810Y-16446714D02*
X14528334Y-16465762D01*
X14528334Y-16465762D02*
X14528334Y-16484809D01*
X14528334Y-16484809D02*
X14433096Y-16503857D01*
X14604524Y-16561000D02*
X14623572Y-16570524D01*
X14623572Y-16570524D02*
X14661667Y-16570524D01*
X14661667Y-16570524D02*
X14680715Y-16561000D01*
X14680715Y-16561000D02*
X14690238Y-16541952D01*
X14690238Y-16541952D02*
X14690238Y-16532428D01*
X14690238Y-16532428D02*
X14680715Y-16513381D01*
X14680715Y-16513381D02*
X14661667Y-16503857D01*
X14661667Y-16503857D02*
X14633096Y-16503857D01*
X14633096Y-16503857D02*
X14614048Y-16494333D01*
X14614048Y-16494333D02*
X14604524Y-16475286D01*
X14604524Y-16475286D02*
X14604524Y-16465762D01*
X14604524Y-16465762D02*
X14614048Y-16446714D01*
X14614048Y-16446714D02*
X14633096Y-16437190D01*
X14633096Y-16437190D02*
X14661667Y-16437190D01*
X14661667Y-16437190D02*
X14680715Y-16446714D01*
X14756905Y-16646714D02*
X14766429Y-16637190D01*
X14766429Y-16637190D02*
X14785477Y-16608619D01*
X14785477Y-16608619D02*
X14795000Y-16589571D01*
X14795000Y-16589571D02*
X14804524Y-16561000D01*
X14804524Y-16561000D02*
X14814048Y-16513381D01*
X14814048Y-16513381D02*
X14814048Y-16475286D01*
X14814048Y-16475286D02*
X14804524Y-16427667D01*
X14804524Y-16427667D02*
X14795000Y-16399095D01*
X14795000Y-16399095D02*
X14785477Y-16380048D01*
X14785477Y-16380048D02*
X14766429Y-16351476D01*
X14766429Y-16351476D02*
X14756905Y-16341952D01*
M02*
