%TF.GenerationSoftware,KiCad,Pcbnew,7.0.1*%
%TF.CreationDate,2023-04-17T00:19:09+03:00*%
%TF.ProjectId,exed,65786564-2e6b-4696-9361-645f70636258,rev?*%
%TF.SameCoordinates,Original*%
%TF.FileFunction,Soldermask,Top*%
%TF.FilePolarity,Negative*%
%FSLAX46Y46*%
G04 Gerber Fmt 4.6, Leading zero omitted, Abs format (unit mm)*
G04 Created by KiCad (PCBNEW 7.0.1) date 2023-04-17 00:19:09*
%MOMM*%
%LPD*%
G01*
G04 APERTURE LIST*
G04 Aperture macros list*
%AMRoundRect*
0 Rectangle with rounded corners*
0 $1 Rounding radius*
0 $2 $3 $4 $5 $6 $7 $8 $9 X,Y pos of 4 corners*
0 Add a 4 corners polygon primitive as box body*
4,1,4,$2,$3,$4,$5,$6,$7,$8,$9,$2,$3,0*
0 Add four circle primitives for the rounded corners*
1,1,$1+$1,$2,$3*
1,1,$1+$1,$4,$5*
1,1,$1+$1,$6,$7*
1,1,$1+$1,$8,$9*
0 Add four rect primitives between the rounded corners*
20,1,$1+$1,$2,$3,$4,$5,0*
20,1,$1+$1,$4,$5,$6,$7,0*
20,1,$1+$1,$6,$7,$8,$9,0*
20,1,$1+$1,$8,$9,$2,$3,0*%
G04 Aperture macros list end*
%ADD10R,1.700000X1.700000*%
%ADD11O,1.700000X1.700000*%
%ADD12RoundRect,0.237500X0.250000X0.237500X-0.250000X0.237500X-0.250000X-0.237500X0.250000X-0.237500X0*%
%ADD13R,2.200000X2.200000*%
%ADD14O,2.200000X2.200000*%
%ADD15R,1.600000X1.600000*%
%ADD16O,1.600000X1.600000*%
%ADD17RoundRect,0.237500X-0.250000X-0.237500X0.250000X-0.237500X0.250000X0.237500X-0.250000X0.237500X0*%
%ADD18O,3.500000X3.500000*%
%ADD19R,2.000000X1.905000*%
%ADD20O,2.000000X1.905000*%
%ADD21RoundRect,0.237500X0.287500X0.237500X-0.287500X0.237500X-0.287500X-0.237500X0.287500X-0.237500X0*%
%ADD22RoundRect,0.250000X0.337500X0.475000X-0.337500X0.475000X-0.337500X-0.475000X0.337500X-0.475000X0*%
%ADD23RoundRect,0.237500X-0.237500X0.250000X-0.237500X-0.250000X0.237500X-0.250000X0.237500X0.250000X0*%
%ADD24RoundRect,0.237500X-0.300000X-0.237500X0.300000X-0.237500X0.300000X0.237500X-0.300000X0.237500X0*%
%ADD25RoundRect,0.237500X0.237500X-0.287500X0.237500X0.287500X-0.237500X0.287500X-0.237500X-0.287500X0*%
%ADD26RoundRect,0.237500X0.300000X0.237500X-0.300000X0.237500X-0.300000X-0.237500X0.300000X-0.237500X0*%
%ADD27RoundRect,0.237500X-0.287500X-0.237500X0.287500X-0.237500X0.287500X0.237500X-0.287500X0.237500X0*%
%ADD28RoundRect,0.250000X0.475000X-0.337500X0.475000X0.337500X-0.475000X0.337500X-0.475000X-0.337500X0*%
%ADD29R,1.500000X1.050000*%
%ADD30O,1.500000X1.050000*%
%ADD31R,1.050000X1.500000*%
%ADD32O,1.050000X1.500000*%
%ADD33C,10.160000*%
%ADD34RoundRect,0.250000X-0.475000X0.337500X-0.475000X-0.337500X0.475000X-0.337500X0.475000X0.337500X0*%
%ADD35RoundRect,0.250000X-0.337500X-0.475000X0.337500X-0.475000X0.337500X0.475000X-0.337500X0.475000X0*%
%ADD36RoundRect,0.237500X-0.237500X0.300000X-0.237500X-0.300000X0.237500X-0.300000X0.237500X0.300000X0*%
%ADD37RoundRect,0.237500X0.237500X-0.300000X0.237500X0.300000X-0.237500X0.300000X-0.237500X-0.300000X0*%
%ADD38RoundRect,0.237500X0.237500X-0.250000X0.237500X0.250000X-0.237500X0.250000X-0.237500X-0.250000X0*%
%ADD39C,2.000000*%
G04 APERTURE END LIST*
D10*
%TO.C,J12*%
X152905489Y-68580000D03*
D11*
X152905489Y-71120000D03*
X152905489Y-73660000D03*
X152905489Y-76200000D03*
X152905489Y-78740000D03*
X152905489Y-81280000D03*
X152905489Y-83820000D03*
X152905489Y-86360000D03*
X152905489Y-88900000D03*
X152905489Y-91440000D03*
%TD*%
D12*
%TO.C,R60*%
X141117989Y-83820000D03*
X139292989Y-83820000D03*
%TD*%
D13*
%TO.C,D22*%
X147685000Y-58055000D03*
D14*
X147685000Y-47895000D03*
%TD*%
D10*
%TO.C,J11*%
X104655489Y-73675000D03*
D11*
X107195489Y-73675000D03*
%TD*%
D15*
%TO.C,U6*%
X114815489Y-71135000D03*
D16*
X114815489Y-73675000D03*
X114815489Y-76215000D03*
X114815489Y-78755000D03*
X114815489Y-81295000D03*
X114815489Y-83835000D03*
X114815489Y-86375000D03*
X114815489Y-88915000D03*
X122435489Y-88915000D03*
X122435489Y-86375000D03*
X122435489Y-83835000D03*
X122435489Y-81295000D03*
X122435489Y-78755000D03*
X122435489Y-76215000D03*
X122435489Y-73675000D03*
X122435489Y-71135000D03*
%TD*%
D17*
%TO.C,R2*%
X156925000Y-132080000D03*
X158750000Y-132080000D03*
%TD*%
D18*
%TO.C,U1*%
X141145000Y-52975000D03*
D19*
X124485000Y-50435000D03*
D20*
X124485000Y-52975000D03*
X124485000Y-55515000D03*
%TD*%
D21*
%TO.C,D4*%
X193150489Y-88885000D03*
X191400489Y-88885000D03*
%TD*%
%TO.C,D11*%
X144890489Y-71120000D03*
X143140489Y-71120000D03*
%TD*%
D22*
%TO.C,C17*%
X118382989Y-130810000D03*
X116307989Y-130810000D03*
%TD*%
D21*
%TO.C,D5*%
X193150489Y-93965000D03*
X191400489Y-93965000D03*
%TD*%
D15*
%TO.C,U4*%
X171955489Y-76200000D03*
D16*
X171955489Y-78740000D03*
X171955489Y-81280000D03*
X171955489Y-83820000D03*
X171955489Y-86360000D03*
X171955489Y-88900000D03*
X171955489Y-91440000D03*
X171955489Y-93980000D03*
X179575489Y-93980000D03*
X179575489Y-91440000D03*
X179575489Y-88900000D03*
X179575489Y-86360000D03*
X179575489Y-83820000D03*
X179575489Y-81280000D03*
X179575489Y-78740000D03*
X179575489Y-76200000D03*
%TD*%
D12*
%TO.C,R58*%
X141117989Y-78740000D03*
X139292989Y-78740000D03*
%TD*%
D21*
%TO.C,D17*%
X144890489Y-73660000D03*
X143140489Y-73660000D03*
%TD*%
D12*
%TO.C,R28*%
X189377989Y-88885000D03*
X187552989Y-88885000D03*
%TD*%
D17*
%TO.C,R64*%
X132802500Y-60595000D03*
X134627500Y-60595000D03*
%TD*%
D10*
%TO.C,J4*%
X167336890Y-47318291D03*
D11*
X164796890Y-47318291D03*
X162256890Y-47318291D03*
%TD*%
D21*
%TO.C,D2*%
X193150489Y-78725000D03*
X191400489Y-78725000D03*
%TD*%
D10*
%TO.C,J7*%
X192415000Y-104000489D03*
D11*
X192415000Y-106540489D03*
X192415000Y-109080489D03*
%TD*%
D23*
%TO.C,R12*%
X175905000Y-113247989D03*
X175905000Y-115072989D03*
%TD*%
D21*
%TO.C,D7*%
X193150489Y-81265000D03*
X191400489Y-81265000D03*
%TD*%
D10*
%TO.C,J3*%
X168130489Y-79995000D03*
D11*
X165590489Y-79995000D03*
X163050489Y-79995000D03*
%TD*%
D24*
%TO.C,C13*%
X187097500Y-45720000D03*
X188822500Y-45720000D03*
%TD*%
D21*
%TO.C,D13*%
X144890489Y-81280000D03*
X143140489Y-81280000D03*
%TD*%
D12*
%TO.C,R56*%
X141117989Y-73660000D03*
X139292989Y-73660000D03*
%TD*%
D21*
%TO.C,D16*%
X144890489Y-68580000D03*
X143140489Y-68580000D03*
%TD*%
D25*
%TO.C,D1*%
X165745000Y-122655489D03*
X165745000Y-120905489D03*
%TD*%
D15*
%TO.C,U7*%
X116075489Y-109220000D03*
D16*
X116075489Y-111760000D03*
X116075489Y-114300000D03*
X116075489Y-116840000D03*
X116075489Y-119380000D03*
X116075489Y-121920000D03*
X116075489Y-124460000D03*
X116075489Y-127000000D03*
X123695489Y-127000000D03*
X123695489Y-124460000D03*
X123695489Y-121920000D03*
X123695489Y-119380000D03*
X123695489Y-116840000D03*
X123695489Y-114300000D03*
X123695489Y-111760000D03*
X123695489Y-109220000D03*
%TD*%
D26*
%TO.C,C6*%
X121920000Y-55880000D03*
X120195000Y-55880000D03*
%TD*%
D27*
%TO.C,D10*%
X111400489Y-67325000D03*
X113150489Y-67325000D03*
%TD*%
D21*
%TO.C,D18*%
X144890489Y-78740000D03*
X143140489Y-78740000D03*
%TD*%
D12*
%TO.C,R55*%
X141117989Y-71120000D03*
X139292989Y-71120000D03*
%TD*%
D15*
%TO.C,U5*%
X197485000Y-117980489D03*
D16*
X194945000Y-117980489D03*
X192405000Y-117980489D03*
X189865000Y-117980489D03*
X189865000Y-125600489D03*
X192405000Y-125600489D03*
X194945000Y-125600489D03*
X197485000Y-125600489D03*
%TD*%
D17*
%TO.C,R30*%
X187552989Y-93965000D03*
X189377989Y-93965000D03*
%TD*%
D28*
%TO.C,C19*%
X117475000Y-67077500D03*
X117475000Y-65002500D03*
%TD*%
D21*
%TO.C,D9*%
X193150489Y-91425000D03*
X191400489Y-91425000D03*
%TD*%
D26*
%TO.C,C1*%
X122782500Y-48260000D03*
X121057500Y-48260000D03*
%TD*%
D29*
%TO.C,Q1*%
X164475000Y-133210489D03*
D30*
X164475000Y-134480489D03*
X164475000Y-135750489D03*
%TD*%
D17*
%TO.C,R38*%
X111362989Y-64785000D03*
X113187989Y-64785000D03*
%TD*%
D31*
%TO.C,Q2*%
X104655489Y-66055000D03*
D32*
X105925489Y-66055000D03*
X107195489Y-66055000D03*
%TD*%
D10*
%TO.C,J14*%
X138935489Y-118110000D03*
%TD*%
%TO.C,J8*%
X197495000Y-109080489D03*
D11*
X197495000Y-106540489D03*
X197495000Y-104000489D03*
%TD*%
D12*
%TO.C,R24*%
X189377989Y-78725000D03*
X187552989Y-78725000D03*
%TD*%
D10*
%TO.C,J15*%
X203200000Y-46990000D03*
D11*
X203200000Y-44450000D03*
X203200000Y-41910000D03*
%TD*%
D33*
%TO.C,J2*%
X126095000Y-39005000D03*
%TD*%
D21*
%TO.C,D8*%
X193150489Y-86345000D03*
X191400489Y-86345000D03*
%TD*%
D34*
%TO.C,C4*%
X173225489Y-70300000D03*
X173225489Y-72375000D03*
%TD*%
D33*
%TO.C,J1*%
X141335000Y-39005000D03*
%TD*%
D10*
%TO.C,J6*%
X201165489Y-76200000D03*
D11*
X201165489Y-78740000D03*
X201165489Y-81280000D03*
X201165489Y-83820000D03*
X201165489Y-86360000D03*
X201165489Y-88900000D03*
X201165489Y-91440000D03*
X201165489Y-93980000D03*
%TD*%
D17*
%TO.C,R51*%
X120242989Y-130810000D03*
X122067989Y-130810000D03*
%TD*%
D12*
%TO.C,R57*%
X141117989Y-76200000D03*
X139292989Y-76200000D03*
%TD*%
D21*
%TO.C,D14*%
X144890489Y-86360000D03*
X143140489Y-86360000D03*
%TD*%
D12*
%TO.C,R26*%
X189377989Y-83805000D03*
X187552989Y-83805000D03*
%TD*%
D35*
%TO.C,C12*%
X186619390Y-48588291D03*
X188694390Y-48588291D03*
%TD*%
D12*
%TO.C,R54*%
X141117989Y-68580000D03*
X139292989Y-68580000D03*
%TD*%
D24*
%TO.C,C11*%
X195362500Y-114160489D03*
X197087500Y-114160489D03*
%TD*%
D12*
%TO.C,R59*%
X141117989Y-81280000D03*
X139292989Y-81280000D03*
%TD*%
%TO.C,R61*%
X141117989Y-86360000D03*
X139292989Y-86360000D03*
%TD*%
D23*
%TO.C,R32*%
X192415000Y-113247989D03*
X192415000Y-115072989D03*
%TD*%
D12*
%TO.C,R27*%
X189377989Y-86345000D03*
X187552989Y-86345000D03*
%TD*%
D17*
%TO.C,R63*%
X139292989Y-91440000D03*
X141117989Y-91440000D03*
%TD*%
D12*
%TO.C,R29*%
X189377989Y-91425000D03*
X187552989Y-91425000D03*
%TD*%
D10*
%TO.C,J10*%
X108455489Y-112649000D03*
D11*
X108455489Y-110109000D03*
%TD*%
D21*
%TO.C,D19*%
X144890489Y-83820000D03*
X143140489Y-83820000D03*
%TD*%
D28*
%TO.C,C15*%
X114300000Y-134387500D03*
X114300000Y-132312500D03*
%TD*%
D36*
%TO.C,C5*%
X176530000Y-70257500D03*
X176530000Y-71982500D03*
%TD*%
D21*
%TO.C,D3*%
X193150489Y-83805000D03*
X191400489Y-83805000D03*
%TD*%
D37*
%TO.C,C16*%
X116205000Y-134212500D03*
X116205000Y-132487500D03*
%TD*%
D24*
%TO.C,C7*%
X179145000Y-114160489D03*
X180870000Y-114160489D03*
%TD*%
D36*
%TO.C,C18*%
X114935000Y-65192500D03*
X114935000Y-66917500D03*
%TD*%
D17*
%TO.C,R11*%
X172312989Y-96505000D03*
X174137989Y-96505000D03*
%TD*%
D11*
%TO.C,J5*%
X198550000Y-41910000D03*
X198550000Y-44450000D03*
D10*
X198550000Y-46990000D03*
%TD*%
D15*
%TO.C,U2*%
X180975000Y-117980489D03*
D16*
X178435000Y-117980489D03*
X175895000Y-117980489D03*
X173355000Y-117980489D03*
X173355000Y-125600489D03*
X175895000Y-125600489D03*
X178435000Y-125600489D03*
X180975000Y-125600489D03*
%TD*%
D38*
%TO.C,R1*%
X164084000Y-122705500D03*
X164084000Y-120880500D03*
%TD*%
D39*
%TO.C,SW1*%
X155585000Y-125590489D03*
X155585000Y-119090489D03*
X160085000Y-125590489D03*
X160085000Y-119090489D03*
%TD*%
D12*
%TO.C,R25*%
X189377989Y-81265000D03*
X187552989Y-81265000D03*
%TD*%
D26*
%TO.C,C2*%
X158750000Y-130810000D03*
X157025000Y-130810000D03*
%TD*%
D21*
%TO.C,D15*%
X144890489Y-91440000D03*
X143140489Y-91440000D03*
%TD*%
%TO.C,D12*%
X144890489Y-76200000D03*
X143140489Y-76200000D03*
%TD*%
D15*
%TO.C,U3*%
X172416890Y-42238291D03*
D16*
X172416890Y-44778291D03*
X172416890Y-47318291D03*
X172416890Y-49858291D03*
X172416890Y-52398291D03*
X172416890Y-54938291D03*
X172416890Y-57478291D03*
X180036890Y-57478291D03*
X180036890Y-54938291D03*
X180036890Y-52398291D03*
X180036890Y-49858291D03*
X180036890Y-47318291D03*
X180036890Y-44778291D03*
X180036890Y-42238291D03*
%TD*%
D21*
%TO.C,D6*%
X193150489Y-76185000D03*
X191400489Y-76185000D03*
%TD*%
D10*
%TO.C,J9*%
X105156000Y-112654000D03*
D11*
X105156000Y-110114000D03*
%TD*%
D12*
%TO.C,R62*%
X141117989Y-88900000D03*
X139292989Y-88900000D03*
%TD*%
D38*
%TO.C,R49*%
X113535489Y-115212500D03*
X113535489Y-113387500D03*
%TD*%
D21*
%TO.C,D21*%
X138400000Y-60595000D03*
X136650000Y-60595000D03*
%TD*%
D10*
%TO.C,J13*%
X138935489Y-111760000D03*
D11*
X138935489Y-109220000D03*
%TD*%
D12*
%TO.C,R23*%
X189377989Y-76185000D03*
X187552989Y-76185000D03*
%TD*%
D21*
%TO.C,D20*%
X144890489Y-88900000D03*
X143140489Y-88900000D03*
%TD*%
D38*
%TO.C,R6*%
X163195000Y-92352500D03*
X163195000Y-90527500D03*
%TD*%
D12*
%TO.C,R9*%
X177315500Y-127635000D03*
X175490500Y-127635000D03*
%TD*%
D38*
%TO.C,R31*%
X170180000Y-54379500D03*
X170180000Y-52554500D03*
%TD*%
D12*
%TO.C,R22*%
X194460500Y-127762000D03*
X192635500Y-127762000D03*
%TD*%
%TO.C,R8*%
X180617500Y-127635000D03*
X178792500Y-127635000D03*
%TD*%
D36*
%TO.C,C3*%
X183261000Y-123978500D03*
X183261000Y-125703500D03*
%TD*%
D38*
%TO.C,R4*%
X168145489Y-92352500D03*
X168145489Y-90527500D03*
%TD*%
D23*
%TO.C,R65*%
X196469000Y-46816000D03*
X196469000Y-48641000D03*
%TD*%
D12*
%TO.C,R16*%
X196492500Y-83312000D03*
X194667500Y-83312000D03*
%TD*%
%TO.C,R53*%
X148624130Y-90424000D03*
X146799130Y-90424000D03*
%TD*%
%TO.C,R18*%
X196492500Y-88392000D03*
X194667500Y-88392000D03*
%TD*%
D38*
%TO.C,R46*%
X126238000Y-122197500D03*
X126238000Y-120372500D03*
%TD*%
D12*
%TO.C,R17*%
X196492500Y-85852000D03*
X194667500Y-85852000D03*
%TD*%
D23*
%TO.C,R7*%
X160528000Y-49784000D03*
X160528000Y-51609000D03*
%TD*%
%TO.C,R37*%
X112268000Y-125579500D03*
X112268000Y-127404500D03*
%TD*%
%TO.C,R34*%
X124965489Y-76557500D03*
X124965489Y-78382500D03*
%TD*%
D12*
%TO.C,R42*%
X148624130Y-70104000D03*
X146799130Y-70104000D03*
%TD*%
%TO.C,R43*%
X148624130Y-72644000D03*
X146799130Y-72644000D03*
%TD*%
%TO.C,R52*%
X148624130Y-87884000D03*
X146799130Y-87884000D03*
%TD*%
%TO.C,R47*%
X148624130Y-80264000D03*
X146799130Y-80264000D03*
%TD*%
D38*
%TO.C,R68*%
X205359000Y-48387000D03*
X205359000Y-46562000D03*
%TD*%
D17*
%TO.C,R13*%
X194667500Y-75692000D03*
X196492500Y-75692000D03*
%TD*%
%TO.C,R41*%
X146799130Y-67564000D03*
X148624130Y-67564000D03*
%TD*%
D12*
%TO.C,R21*%
X197762500Y-127762000D03*
X195937500Y-127762000D03*
%TD*%
%TO.C,R48*%
X148624130Y-82804000D03*
X146799130Y-82804000D03*
%TD*%
D23*
%TO.C,R66*%
X196469000Y-43363500D03*
X196469000Y-45188500D03*
%TD*%
D12*
%TO.C,R45*%
X148624130Y-77724000D03*
X146799130Y-77724000D03*
%TD*%
D17*
%TO.C,R33*%
X105012989Y-69865000D03*
X106837989Y-69865000D03*
%TD*%
D12*
%TO.C,R14*%
X196492500Y-78232000D03*
X194667500Y-78232000D03*
%TD*%
D37*
%TO.C,C14*%
X113792000Y-124052500D03*
X113792000Y-122327500D03*
%TD*%
D12*
%TO.C,R20*%
X196492500Y-93472000D03*
X194667500Y-93472000D03*
%TD*%
D26*
%TO.C,C9*%
X170635000Y-130810000D03*
X168910000Y-130810000D03*
%TD*%
D35*
%TO.C,C8*%
X168761500Y-128778000D03*
X170836500Y-128778000D03*
%TD*%
D23*
%TO.C,R40*%
X110744000Y-110339500D03*
X110744000Y-112164500D03*
%TD*%
D36*
%TO.C,C10*%
X199771000Y-123978500D03*
X199771000Y-125703500D03*
%TD*%
D23*
%TO.C,R35*%
X127762000Y-76581000D03*
X127762000Y-78406000D03*
%TD*%
D12*
%TO.C,R15*%
X196492500Y-80772000D03*
X194667500Y-80772000D03*
%TD*%
D23*
%TO.C,R67*%
X196469000Y-39553500D03*
X196469000Y-41378500D03*
%TD*%
%TO.C,R39*%
X112268000Y-110339500D03*
X112268000Y-112164500D03*
%TD*%
D12*
%TO.C,R50*%
X148624130Y-85344000D03*
X146799130Y-85344000D03*
%TD*%
D38*
%TO.C,R5*%
X160401000Y-56896000D03*
X160401000Y-55071000D03*
%TD*%
%TO.C,R70*%
X205359000Y-41402000D03*
X205359000Y-39577000D03*
%TD*%
D12*
%TO.C,R44*%
X148624130Y-75184000D03*
X146799130Y-75184000D03*
%TD*%
%TO.C,R19*%
X196492500Y-90932000D03*
X194667500Y-90932000D03*
%TD*%
D23*
%TO.C,R36*%
X113792000Y-125579500D03*
X113792000Y-127404500D03*
%TD*%
D38*
%TO.C,R10*%
X165605489Y-92352500D03*
X165605489Y-90527500D03*
%TD*%
%TO.C,R69*%
X205359000Y-44854500D03*
X205359000Y-43029500D03*
%TD*%
D17*
%TO.C,R3*%
X157075500Y-116967000D03*
X158900500Y-116967000D03*
%TD*%
M02*
