M48
; DRILL file {KiCad 7.0.1} date Mon 17 Apr 2023 12:19:06 AM EEST
; FORMAT={-:-/ absolute / inch / decimal}
; #@! TF.CreationDate,2023-04-17T00:19:06+03:00
; #@! TF.GenerationSoftware,Kicad,Pcbnew,7.0.1
; #@! TF.FileFunction,Plated,1,2,PTH
FMAT,2
INCH
; #@! TA.AperFunction,Plated,PTH,ViaDrill
T1C0.0157
; #@! TA.AperFunction,Plated,PTH,ComponentDrill
T2C0.0295
; #@! TA.AperFunction,Plated,PTH,ComponentDrill
T3C0.0315
; #@! TA.AperFunction,Plated,PTH,ComponentDrill
T4C0.0394
; #@! TA.AperFunction,Plated,PTH,ComponentDrill
T5C0.0433
; #@! TA.AperFunction,Plated,PTH,ComponentDrill
T6C0.2402
%
G90
G05
T1
X4.32Y-4.38
X4.43Y-2.9219
X4.475Y-5.06
X4.48Y-4.285
X4.5Y-2.725
X4.6699Y-3.3
X4.7Y-5.325
X4.72Y-4.5
X4.77Y-4.875
X4.9699Y-3.4
X5.1199Y-3.3
X5.1699Y-3.4
X5.5699Y-2.75
X5.5699Y-2.85
X5.5699Y-2.95
X5.5699Y-3.05
X5.5699Y-3.15
X5.5699Y-3.25
X5.5699Y-3.35
X5.5699Y-3.45
X5.5699Y-3.55
X5.5699Y-3.65
X5.78Y-2.71
X5.78Y-2.81
X5.78Y-2.91
X5.78Y-3.01
X5.78Y-3.11
X5.78Y-3.21
X5.78Y-3.31
X5.78Y-3.41
X5.78Y-3.51
X5.78Y-3.61
X6.588Y-2.8604
X6.6Y-4.65
X6.62Y-5.215
X6.92Y-2.175
X7.2991Y-2.0741
X7.4699Y-3.0494
X7.4699Y-3.1494
X7.4699Y-3.2494
X7.4699Y-3.3494
X7.4699Y-3.4494
X7.4699Y-3.5494
X7.4699Y-3.6494
X7.4699Y-3.7494
X7.645Y-1.66
X7.66Y-3.03
X7.66Y-3.13
X7.66Y-3.23
X7.66Y-3.33
X7.66Y-3.43
X7.66Y-3.53
X7.66Y-3.63
X7.66Y-3.73
T2
X4.1203Y-2.6006
X4.1703Y-2.6006
X4.2203Y-2.6006
X6.4754Y-5.2445
X6.4754Y-5.2945
X6.4754Y-5.3445
T3
X4.5203Y-2.8006
X4.5203Y-2.9006
X4.5203Y-3.0006
X4.5203Y-3.1006
X4.5203Y-3.2006
X4.5203Y-3.3006
X4.5203Y-3.4006
X4.5203Y-3.5006
X4.5699Y-4.3
X4.5699Y-4.4
X4.5699Y-4.5
X4.5699Y-4.6
X4.5699Y-4.7
X4.5699Y-4.8
X4.5699Y-4.9
X4.5699Y-5.0
X4.8203Y-2.8006
X4.8203Y-2.9006
X4.8203Y-3.0006
X4.8203Y-3.1006
X4.8203Y-3.2006
X4.8203Y-3.3006
X4.8203Y-3.4006
X4.8203Y-3.5006
X4.8699Y-4.3
X4.8699Y-4.4
X4.8699Y-4.5
X4.8699Y-4.6
X4.8699Y-4.7
X4.8699Y-4.8
X4.8699Y-4.9
X4.8699Y-5.0
X6.7699Y-3.0
X6.7699Y-3.1
X6.7699Y-3.2
X6.7699Y-3.3
X6.7699Y-3.4
X6.7699Y-3.5
X6.7699Y-3.6
X6.7699Y-3.7
X6.7881Y-1.6629
X6.7881Y-1.7629
X6.7881Y-1.8629
X6.7881Y-1.9629
X6.7881Y-2.0629
X6.7881Y-2.1629
X6.7881Y-2.2629
X6.825Y-4.6449
X6.825Y-4.9449
X6.925Y-4.6449
X6.925Y-4.9449
X7.025Y-4.6449
X7.025Y-4.9449
X7.0699Y-3.0
X7.0699Y-3.1
X7.0699Y-3.2
X7.0699Y-3.3
X7.0699Y-3.4
X7.0699Y-3.5
X7.0699Y-3.6
X7.0699Y-3.7
X7.0881Y-1.6629
X7.0881Y-1.7629
X7.0881Y-1.8629
X7.0881Y-1.9629
X7.0881Y-2.0629
X7.0881Y-2.1629
X7.0881Y-2.2629
X7.125Y-4.6449
X7.125Y-4.9449
X7.475Y-4.6449
X7.475Y-4.9449
X7.575Y-4.6449
X7.575Y-4.9449
X7.675Y-4.6449
X7.675Y-4.9449
X7.775Y-4.6449
X7.775Y-4.9449
T4
X4.1203Y-2.9006
X4.14Y-4.3352
X4.14Y-4.4352
X4.2203Y-2.9006
X4.2699Y-4.335
X4.2699Y-4.435
X5.4699Y-4.3
X5.4699Y-4.4
X5.4699Y-4.65
X6.0199Y-2.7
X6.0199Y-2.8
X6.0199Y-2.9
X6.0199Y-3.0
X6.0199Y-3.1
X6.0199Y-3.2
X6.0199Y-3.3
X6.0199Y-3.4
X6.0199Y-3.5
X6.0199Y-3.6
X6.3881Y-1.8629
X6.4193Y-3.1494
X6.4881Y-1.8629
X6.5193Y-3.1494
X6.5881Y-1.8629
X6.6193Y-3.1494
X7.5754Y-4.0945
X7.5754Y-4.1945
X7.5754Y-4.2945
X7.7754Y-4.0945
X7.7754Y-4.1945
X7.7754Y-4.2945
X7.8169Y-1.65
X7.8169Y-1.75
X7.8169Y-1.85
X7.9199Y-3.0
X7.9199Y-3.1
X7.9199Y-3.2
X7.9199Y-3.3
X7.9199Y-3.4
X7.9199Y-3.5
X7.9199Y-3.6
X7.9199Y-3.7
X8.0Y-1.65
X8.0Y-1.75
X8.0Y-1.85
T5
X4.901Y-1.9856
X4.901Y-2.0856
X4.901Y-2.1856
X5.8144Y-1.8856
X5.8144Y-2.2856
X6.1254Y-4.6886
X6.1254Y-4.9445
X6.3026Y-4.6886
X6.3026Y-4.9445
T6
X4.9644Y-1.5356
X5.5644Y-1.5356
T0
M30
