%TF.GenerationSoftware,KiCad,Pcbnew,7.0.1*%
%TF.CreationDate,2023-04-17T00:19:10+03:00*%
%TF.ProjectId,exed,65786564-2e6b-4696-9361-645f70636258,rev?*%
%TF.SameCoordinates,Original*%
%TF.FileFunction,Soldermask,Bot*%
%TF.FilePolarity,Negative*%
%FSLAX46Y46*%
G04 Gerber Fmt 4.6, Leading zero omitted, Abs format (unit mm)*
G04 Created by KiCad (PCBNEW 7.0.1) date 2023-04-17 00:19:10*
%MOMM*%
%LPD*%
G01*
G04 APERTURE LIST*
%ADD10R,1.700000X1.700000*%
%ADD11O,1.700000X1.700000*%
%ADD12R,2.200000X2.200000*%
%ADD13O,2.200000X2.200000*%
%ADD14R,1.600000X1.600000*%
%ADD15O,1.600000X1.600000*%
%ADD16O,3.500000X3.500000*%
%ADD17R,2.000000X1.905000*%
%ADD18O,2.000000X1.905000*%
%ADD19R,1.500000X1.050000*%
%ADD20O,1.500000X1.050000*%
%ADD21R,1.050000X1.500000*%
%ADD22O,1.050000X1.500000*%
%ADD23C,10.160000*%
%ADD24C,2.000000*%
G04 APERTURE END LIST*
D10*
%TO.C,J12*%
X152905489Y-68580000D03*
D11*
X152905489Y-71120000D03*
X152905489Y-73660000D03*
X152905489Y-76200000D03*
X152905489Y-78740000D03*
X152905489Y-81280000D03*
X152905489Y-83820000D03*
X152905489Y-86360000D03*
X152905489Y-88900000D03*
X152905489Y-91440000D03*
%TD*%
D12*
%TO.C,D22*%
X147685000Y-58055000D03*
D13*
X147685000Y-47895000D03*
%TD*%
D10*
%TO.C,J11*%
X104655489Y-73675000D03*
D11*
X107195489Y-73675000D03*
%TD*%
D14*
%TO.C,U6*%
X114815489Y-71135000D03*
D15*
X114815489Y-73675000D03*
X114815489Y-76215000D03*
X114815489Y-78755000D03*
X114815489Y-81295000D03*
X114815489Y-83835000D03*
X114815489Y-86375000D03*
X114815489Y-88915000D03*
X122435489Y-88915000D03*
X122435489Y-86375000D03*
X122435489Y-83835000D03*
X122435489Y-81295000D03*
X122435489Y-78755000D03*
X122435489Y-76215000D03*
X122435489Y-73675000D03*
X122435489Y-71135000D03*
%TD*%
D16*
%TO.C,U1*%
X141145000Y-52975000D03*
D17*
X124485000Y-50435000D03*
D18*
X124485000Y-52975000D03*
X124485000Y-55515000D03*
%TD*%
D14*
%TO.C,U4*%
X171955489Y-76200000D03*
D15*
X171955489Y-78740000D03*
X171955489Y-81280000D03*
X171955489Y-83820000D03*
X171955489Y-86360000D03*
X171955489Y-88900000D03*
X171955489Y-91440000D03*
X171955489Y-93980000D03*
X179575489Y-93980000D03*
X179575489Y-91440000D03*
X179575489Y-88900000D03*
X179575489Y-86360000D03*
X179575489Y-83820000D03*
X179575489Y-81280000D03*
X179575489Y-78740000D03*
X179575489Y-76200000D03*
%TD*%
D10*
%TO.C,J4*%
X167336890Y-47318291D03*
D11*
X164796890Y-47318291D03*
X162256890Y-47318291D03*
%TD*%
D10*
%TO.C,J7*%
X192415000Y-104000489D03*
D11*
X192415000Y-106540489D03*
X192415000Y-109080489D03*
%TD*%
D10*
%TO.C,J3*%
X168130489Y-79995000D03*
D11*
X165590489Y-79995000D03*
X163050489Y-79995000D03*
%TD*%
D14*
%TO.C,U7*%
X116075489Y-109220000D03*
D15*
X116075489Y-111760000D03*
X116075489Y-114300000D03*
X116075489Y-116840000D03*
X116075489Y-119380000D03*
X116075489Y-121920000D03*
X116075489Y-124460000D03*
X116075489Y-127000000D03*
X123695489Y-127000000D03*
X123695489Y-124460000D03*
X123695489Y-121920000D03*
X123695489Y-119380000D03*
X123695489Y-116840000D03*
X123695489Y-114300000D03*
X123695489Y-111760000D03*
X123695489Y-109220000D03*
%TD*%
D14*
%TO.C,U5*%
X197485000Y-117980489D03*
D15*
X194945000Y-117980489D03*
X192405000Y-117980489D03*
X189865000Y-117980489D03*
X189865000Y-125600489D03*
X192405000Y-125600489D03*
X194945000Y-125600489D03*
X197485000Y-125600489D03*
%TD*%
D19*
%TO.C,Q1*%
X164475000Y-133210489D03*
D20*
X164475000Y-134480489D03*
X164475000Y-135750489D03*
%TD*%
D21*
%TO.C,Q2*%
X104655489Y-66055000D03*
D22*
X105925489Y-66055000D03*
X107195489Y-66055000D03*
%TD*%
D10*
%TO.C,J14*%
X138935489Y-118110000D03*
%TD*%
%TO.C,J8*%
X197495000Y-109080489D03*
D11*
X197495000Y-106540489D03*
X197495000Y-104000489D03*
%TD*%
D10*
%TO.C,J15*%
X203200000Y-46990000D03*
D11*
X203200000Y-44450000D03*
X203200000Y-41910000D03*
%TD*%
D23*
%TO.C,J2*%
X126095000Y-39005000D03*
%TD*%
%TO.C,J1*%
X141335000Y-39005000D03*
%TD*%
D10*
%TO.C,J6*%
X201165489Y-76200000D03*
D11*
X201165489Y-78740000D03*
X201165489Y-81280000D03*
X201165489Y-83820000D03*
X201165489Y-86360000D03*
X201165489Y-88900000D03*
X201165489Y-91440000D03*
X201165489Y-93980000D03*
%TD*%
D10*
%TO.C,J10*%
X108455489Y-112649000D03*
D11*
X108455489Y-110109000D03*
%TD*%
%TO.C,J5*%
X198550000Y-41910000D03*
X198550000Y-44450000D03*
D10*
X198550000Y-46990000D03*
%TD*%
D14*
%TO.C,U2*%
X180975000Y-117980489D03*
D15*
X178435000Y-117980489D03*
X175895000Y-117980489D03*
X173355000Y-117980489D03*
X173355000Y-125600489D03*
X175895000Y-125600489D03*
X178435000Y-125600489D03*
X180975000Y-125600489D03*
%TD*%
D24*
%TO.C,SW1*%
X155585000Y-125590489D03*
X155585000Y-119090489D03*
X160085000Y-125590489D03*
X160085000Y-119090489D03*
%TD*%
D14*
%TO.C,U3*%
X172416890Y-42238291D03*
D15*
X172416890Y-44778291D03*
X172416890Y-47318291D03*
X172416890Y-49858291D03*
X172416890Y-52398291D03*
X172416890Y-54938291D03*
X172416890Y-57478291D03*
X180036890Y-57478291D03*
X180036890Y-54938291D03*
X180036890Y-52398291D03*
X180036890Y-49858291D03*
X180036890Y-47318291D03*
X180036890Y-44778291D03*
X180036890Y-42238291D03*
%TD*%
D10*
%TO.C,J9*%
X105156000Y-112654000D03*
D11*
X105156000Y-110114000D03*
%TD*%
D10*
%TO.C,J13*%
X138935489Y-111760000D03*
D11*
X138935489Y-109220000D03*
%TD*%
M02*
